<svg width="90" height="90" viewBox="0 0 90 90" fill="none" xmlns="http://www.w3.org/2000/svg">
<path d="M67.392 11.2832C79.528 13.9538 87.2813 25.5929 84.7096 37.2795C83.3665 43.3824 79.4723 48.2899 74.3302 51.2072C77.7725 56.0137 79.2469 62.1026 77.904 68.2055C75.3323 79.8921 63.4092 87.2012 51.2732 84.5306C45.6446 83.292 40.9602 80.1231 37.8099 75.9163C33.1846 78.412 27.6028 79.3217 21.9742 78.0831C9.83817 75.4124 2.08485 63.7733 4.65659 52.0867C5.92144 46.3393 9.44834 41.6513 14.1497 38.6879C11.1592 33.878 9.96975 27.9425 11.2831 21.9742C13.9538 9.8382 25.957 2.16499 38.093 4.83564C43.664 6.06158 48.2937 9.25468 51.415 13.5239C56.0674 10.9705 61.7065 10.032 67.392 11.2832Z" fill="#35B454"/>
<path d="M34.8093 43.0223C40.4728 44.2686 44.0536 49.87 42.8073 55.5335L40.5507 65.7882L30.296 63.5315C24.6326 62.2852 21.0517 56.6837 22.298 51.0203C23.5443 45.3568 29.1458 41.7759 34.8093 43.0223ZM63.3166 60.0468C62.0703 65.7103 56.4688 69.2911 50.8053 68.0448C45.1418 66.7985 41.561 61.197 42.8073 55.5335C44.0536 49.87 49.6551 46.2892 55.3186 47.5355L65.5732 49.7921L63.3166 60.0468ZM39.3226 22.513C44.986 23.7593 48.5669 29.3608 47.3206 35.0242C46.0743 40.6877 40.4728 44.2686 34.8093 43.0223L24.5547 40.7656L26.8113 30.511C28.0576 24.8475 33.6591 21.2667 39.3226 22.513ZM59.8318 27.0262C65.4953 28.2725 69.0762 33.874 67.8299 39.5375C66.5835 45.201 60.9821 48.7818 55.3186 47.5355C49.6551 46.2892 46.0743 40.6877 47.3206 35.0242L49.5772 24.7696L59.8318 27.0262Z" fill="white"/>
</svg>
