<svg width="74" height="74" viewBox="0 0 74 74" fill="none" xmlns="http://www.w3.org/2000/svg">
<path d="M29.7973 9.86825C36.7153 4.73296 46.3323 5.97057 51.2774 12.6323C53.8598 16.1112 54.6561 20.3812 53.8436 24.3989C57.9244 24.7841 61.7811 26.7823 64.3636 30.2612C69.3087 36.9229 67.7095 46.4865 60.7915 51.6218C57.583 54.0035 53.7941 55.0131 50.1598 54.7478C49.3617 58.3033 47.2986 61.6378 44.0901 64.0195C37.1722 69.1548 27.5551 67.9172 22.61 61.2554C20.1781 57.9792 19.3294 54.0012 19.9174 50.1932C16.0403 49.57 12.3935 47.4924 9.86809 44.0903C4.7328 37.1723 6.17793 27.4012 13.0959 22.2659C16.2715 19.9086 20.0483 18.9386 23.702 19.2474C24.4823 15.6516 26.5564 12.274 29.7973 9.86825Z" fill="#8633FA"/>
<path d="M39.779 42.8571C37.6193 39.9478 40.1466 35.8989 43.7089 36.5613L52.6965 38.2323L52.1135 41.3687L43.1255 39.6971C42.4132 39.5649 41.908 40.3744 42.3398 40.9562L48.214 48.8695L45.6532 50.7705L39.779 42.8571ZM31.5871 39.3658C34.451 37.2399 38.4195 39.6557 37.9109 43.1296L37.8829 43.2958L36.212 52.2834L33.0756 51.7004L34.7472 42.7124L34.7616 42.5815C34.7795 41.9406 34.0336 41.5218 33.4881 41.9267L25.5748 47.8009L23.6738 45.24L31.5871 39.3658ZM41.7818 22.3308L40.1102 31.3188C39.978 32.0311 40.7875 32.5363 41.3693 32.1044L49.2826 26.2303L51.1836 28.7911L43.2703 34.6653C40.3609 36.825 36.312 34.2977 36.9745 30.7354L38.6454 21.7478L41.7818 22.3308ZM31.7319 34.3341L31.8628 34.3485C32.5037 34.3664 32.9224 33.6205 32.5176 33.075L26.6434 25.1617L29.2042 23.2607L35.0784 31.174C37.2043 34.0379 34.7886 38.0063 31.3147 37.4978L31.1485 37.4698L22.1609 35.7989L22.7439 32.6625L31.7319 34.3341Z" fill="white"/>
</svg>
