<svg width="122" height="122" viewBox="0 0 122 122" fill="none" xmlns="http://www.w3.org/2000/svg">
<rect x="19.1007" y="41.8051" width="65" height="65" rx="10" transform="rotate(-20.4444 19.1007 41.8051)" fill="#45E0D3"/>
<path d="M62.8229 63.4728C65.9081 64.8824 67.256 68.6094 65.3038 71.3833C61.0631 77.4082 56.0236 80.7056 52.6139 79.1478C48.2994 77.1765 48.1538 68.1442 52.1391 58.5914L62.8229 63.4728ZM49.8634 57.5516C47.8462 62.3634 46.7831 67.1452 46.7601 71.1608C46.7517 72.6305 46.8881 74.1364 47.2338 75.543C41.4948 70.1572 39.3237 61.6979 42.1615 54.0326L49.8634 57.5516ZM78.4426 70.6094C74.5053 77.7724 66.6891 81.6684 58.8608 80.8554C60.1504 80.196 61.3781 79.3134 62.4838 78.3449C64.3438 76.7156 66.1648 74.5976 67.831 72.1192C69.6384 69.4305 73.0806 68.1597 76.0275 69.5059L78.4426 70.6094ZM62.99 41.0579C61.7003 41.7174 60.4726 42.6 59.3671 43.5685C56.2501 46.2987 53.2417 50.4005 50.8908 55.2724L43.172 51.7457C47.0266 44.3014 55.0022 40.2284 62.99 41.0579ZM69.2369 42.7655C72.7338 44.3633 73.4927 50.5998 71.5327 57.9922C70.6701 61.2455 66.9987 62.632 63.9373 61.2334L53.1647 56.3114C57.7752 46.7847 64.8532 40.7626 69.2369 42.7655ZM74.617 46.3703C80.4729 51.8659 82.6145 60.5615 79.5099 68.3485L77.1348 67.2633C74.1657 65.9065 72.8777 62.4343 73.7673 59.2934C74.6268 56.2591 75.0759 53.346 75.0907 50.7526C75.0991 49.2828 74.9627 47.7769 74.617 46.3703Z" fill="#0C4446"/>
</svg>
