<svg width="92" height="92" viewBox="0 0 92 92" fill="none" xmlns="http://www.w3.org/2000/svg">
<rect y="45.9619" width="65" height="65" rx="10" transform="rotate(-45 0 45.9619)" fill="#E24343"/>
<path fill-rule="evenodd" clip-rule="evenodd" d="M28 41V57H33C33.5253 57 34.0454 57.1035 34.5308 57.3045C35.016 57.5055 35.457 57.8001 35.8284 58.1716C36.1998 58.543 36.4945 58.984 36.6956 59.4693C36.8965 59.9546 37 60.4747 37 61V66H49L64 51V35H59C58.4747 35 57.9546 34.8965 57.4692 34.6955C56.984 34.4945 56.543 34.1999 56.1716 33.8284C55.8002 33.457 55.5055 33.016 55.3044 32.5307C55.1035 32.0454 55 31.5253 55 31V26H43L28 41ZM45 56H38V45L47 36H54V47L45 56Z" fill="white"/>
</svg>
