<svg width="53" height="53" viewBox="0 0 53 53" fill="none" xmlns="http://www.w3.org/2000/svg">
<path d="M52.9438 26.9438C52.9438 41.3033 41.3033 52.9438 26.9438 52.9438C12.5844 52.9438 0.943848 41.3033 0.943848 26.9438C0.943848 12.5844 12.5844 0.943848 26.9438 0.943848C41.3033 0.943848 52.9438 12.5844 52.9438 26.9438Z" fill="#EB6D12"/>
<path d="M35.3649 38.9438C39.5659 38.8586 42.9438 35.4386 42.9438 31.2341C42.9438 29.1894 42.1283 27.2284 40.6765 25.7825L27.786 12.9438V20.924C27.786 22.2585 28.3183 23.5385 29.2659 24.4823L32.2856 27.4898L32.2938 27.4978L37.357 32.5407C37.5215 32.7044 37.5215 32.97 37.357 33.1337C37.1927 33.2975 36.926 33.2975 36.7616 33.1337L35.0163 31.3955H18.8714L17.1261 33.1337C16.9616 33.2975 16.6951 33.2975 16.5306 33.1337C16.3662 32.97 16.3662 32.7044 16.5306 32.5407L21.5939 27.4978L21.6021 27.4898L24.6218 24.4823C25.5694 23.5385 26.1017 22.2585 26.1017 20.924V12.9438L13.2111 25.7825C11.7594 27.2284 10.9438 29.1894 10.9438 31.2341C10.9438 35.4386 14.3218 38.8586 18.5228 38.9438H35.3649Z" fill="white"/>
</svg>
