<svg width="295" height="169" viewBox="0 0 295 169" fill="none" xmlns="http://www.w3.org/2000/svg">
<rect x="0.5" y="0.5" width="294" height="167.081" rx="13.2209" fill="white"/>
<rect x="0.5" y="0.5" width="294" height="167.081" rx="13.2209" stroke="#EBEBEB"/>
<path d="M21.7232 25.0099V22.9894H32.3387V25.0099H28.2263V36.2946H25.8355V25.0099H21.7232ZM36.2721 36.4895C35.2976 36.4895 34.453 36.2751 33.7384 35.8463C33.0238 35.4175 32.4694 34.8176 32.0753 34.0467C31.6855 33.2758 31.4906 32.3749 31.4906 31.3441C31.4906 30.3133 31.6855 29.4103 32.0753 28.635C32.4694 27.8597 33.0238 27.2577 33.7384 26.8289C34.453 26.4002 35.2976 26.1858 36.2721 26.1858C37.2466 26.1858 38.0912 26.4002 38.8058 26.8289C39.5204 27.2577 40.0726 27.8597 40.4624 28.635C40.8566 29.4103 41.0536 30.3133 41.0536 31.3441C41.0536 32.3749 40.8566 33.2758 40.4624 34.0467C40.0726 34.8176 39.5204 35.4175 38.8058 35.8463C38.0912 36.2751 37.2466 36.4895 36.2721 36.4895ZM36.2851 34.6054C36.8135 34.6054 37.2553 34.4603 37.6104 34.1702C37.9656 33.8756 38.2297 33.4815 38.403 32.9878C38.5806 32.494 38.6694 31.944 38.6694 31.3376C38.6694 30.7269 38.5806 30.1747 38.403 29.681C38.2297 29.1829 37.9656 28.7866 37.6104 28.4921C37.2553 28.1976 36.8135 28.0503 36.2851 28.0503C35.7437 28.0503 35.2933 28.1976 34.9338 28.4921C34.5786 28.7866 34.3123 29.1829 34.1347 29.681C33.9614 30.1747 33.8748 30.7269 33.8748 31.3376C33.8748 31.944 33.9614 32.494 34.1347 32.9878C34.3123 33.4815 34.5786 33.8756 34.9338 34.1702C35.2933 34.4603 35.7437 34.6054 36.2851 34.6054ZM46.4878 36.4895C45.5133 36.4895 44.6687 36.2751 43.9541 35.8463C43.2394 35.4175 42.685 34.8176 42.2909 34.0467C41.9011 33.2758 41.7062 32.3749 41.7062 31.3441C41.7062 30.3133 41.9011 29.4103 42.2909 28.635C42.685 27.8597 43.2394 27.2577 43.9541 26.8289C44.6687 26.4002 45.5133 26.1858 46.4878 26.1858C47.4623 26.1858 48.3068 26.4002 49.0214 26.8289C49.7361 27.2577 50.2883 27.8597 50.6781 28.635C51.0722 29.4103 51.2693 30.3133 51.2693 31.3441C51.2693 32.3749 51.0722 33.2758 50.6781 34.0467C50.2883 34.8176 49.7361 35.4175 49.0214 35.8463C48.3068 36.2751 47.4623 36.4895 46.4878 36.4895ZM46.5007 34.6054C47.0291 34.6054 47.4709 34.4603 47.8261 34.1702C48.1812 33.8756 48.4454 33.4815 48.6187 32.9878C48.7962 32.494 48.885 31.944 48.885 31.3376C48.885 30.7269 48.7962 30.1747 48.6187 29.681C48.4454 29.1829 48.1812 28.7866 47.8261 28.4921C47.4709 28.1976 47.0291 28.0503 46.5007 28.0503C45.9594 28.0503 45.5089 28.1976 45.1494 28.4921C44.7943 28.7866 44.5279 29.1829 44.3504 29.681C44.1771 30.1747 44.0905 30.7269 44.0905 31.3376C44.0905 31.944 44.1771 32.494 44.3504 32.9878C44.5279 33.4815 44.7943 33.8756 45.1494 34.1702C45.5089 34.4603 45.9594 34.6054 46.5007 34.6054ZM54.7024 22.9894V36.2946H52.3507V22.9894H54.7024ZM63.8052 36.4895C62.8957 36.4895 62.1139 36.3249 61.4599 35.9957C60.8059 35.6665 60.3014 35.2226 59.9462 34.6639C59.5954 34.1009 59.42 33.4663 59.42 32.7604C59.42 32.2277 59.5283 31.7556 59.7448 31.3441C59.9657 30.9327 60.2689 30.5515 60.6544 30.2007C61.0442 29.8499 61.4946 29.5012 62.0057 29.1547L64.3639 27.5501C64.7104 27.3248 64.9725 27.0866 65.15 26.8354C65.3319 26.5842 65.4229 26.2897 65.4229 25.9519C65.4229 25.666 65.3016 25.3953 65.0591 25.1398C64.8209 24.8843 64.4917 24.7565 64.0716 24.7565C63.7901 24.7565 63.541 24.8236 63.3245 24.9579C63.1123 25.0878 62.9455 25.2589 62.8242 25.4711C62.7073 25.6834 62.6488 25.9086 62.6488 26.1468C62.6488 26.437 62.729 26.7315 62.8892 27.0303C63.0538 27.3292 63.266 27.6388 63.5259 27.9593C63.7901 28.2799 64.0716 28.6198 64.3704 28.9793L70.6137 36.2946H68.067L62.8827 30.3566C62.4972 29.9062 62.1248 29.4622 61.7653 29.0248C61.4101 28.5874 61.1178 28.1326 60.8882 27.6605C60.663 27.1841 60.5504 26.6687 60.5504 26.1143C60.5504 25.4863 60.6955 24.9254 60.9857 24.4317C61.2759 23.9336 61.6808 23.5416 62.2006 23.2558C62.7246 22.9699 63.3375 22.827 64.0391 22.827C64.7408 22.827 65.3428 22.9656 65.8452 23.2428C66.3476 23.52 66.7352 23.8881 67.0081 24.3472C67.2809 24.8063 67.4174 25.3065 67.4174 25.8479C67.4174 26.4759 67.2615 27.039 66.9496 27.5371C66.6378 28.0308 66.2047 28.4791 65.6503 28.8819L62.9607 30.8504C62.5189 31.1709 62.2027 31.4957 62.0122 31.8249C61.8216 32.1497 61.7263 32.4269 61.7263 32.6564C61.7263 33.0072 61.8151 33.3256 61.9927 33.6114C62.1702 33.8973 62.4193 34.1268 62.7398 34.3001C63.0646 34.469 63.4436 34.5535 63.8767 34.5535C64.3531 34.5535 64.823 34.4473 65.2865 34.2351C65.7499 34.0186 66.1722 33.7111 66.5533 33.3126C66.9345 32.9141 67.2376 32.4377 67.4628 31.8833C67.6881 31.3246 67.8007 30.7053 67.8007 30.0253H69.8211C69.8211 30.8655 69.728 31.5975 69.5418 32.2212C69.3555 32.8405 69.1152 33.3646 68.8206 33.7933C68.5261 34.2178 68.2143 34.5578 67.8851 34.8133C67.7812 34.8869 67.6816 34.9606 67.5863 35.0342C67.491 35.1078 67.3914 35.1815 67.2874 35.2551C66.8197 35.6795 66.2718 35.9914 65.6438 36.1906C65.0201 36.3898 64.4073 36.4895 63.8052 36.4895ZM76.4812 36.2946H73.9085L78.5926 22.9894H81.5681L86.2586 36.2946H83.686L80.1323 25.718H80.0283L76.4812 36.2946ZM76.5656 31.0777H83.582V33.0137H76.5656V31.0777ZM86.9924 40.0366V26.3157H89.3052V27.9658H89.4417C89.5629 27.7233 89.734 27.4656 89.9549 27.1927C90.1758 26.9156 90.4746 26.6795 90.8514 26.4846C91.2283 26.2854 91.709 26.1858 92.2937 26.1858C93.0646 26.1858 93.7598 26.3828 94.3791 26.777C95.0028 27.1668 95.4966 27.745 95.8604 28.5116C96.2285 29.2738 96.4126 30.2094 96.4126 31.3181C96.4126 32.4139 96.2328 33.3451 95.8734 34.1117C95.5139 34.8783 95.0245 35.463 94.4051 35.8658C93.7858 36.2686 93.0841 36.47 92.3002 36.47C91.7285 36.47 91.2542 36.3747 90.8774 36.1841C90.5006 35.9935 90.1975 35.764 89.9679 35.4955C89.7427 35.2226 89.5673 34.9649 89.4417 34.7224H89.3442V40.0366H86.9924ZM89.2987 31.3051C89.2987 31.9505 89.3897 32.5157 89.5716 33.0008C89.7578 33.4858 90.0242 33.8648 90.3707 34.1377C90.7215 34.4062 91.146 34.5405 91.644 34.5405C92.1638 34.5405 92.599 34.4019 92.9499 34.1247C93.3007 33.8432 93.5649 33.4598 93.7425 32.9748C93.9244 32.4854 94.0153 31.9288 94.0153 31.3051C94.0153 30.6858 93.9265 30.1357 93.749 29.655C93.5714 29.1742 93.3072 28.7974 92.9564 28.5246C92.6055 28.2517 92.1681 28.1153 91.644 28.1153C91.1416 28.1153 90.715 28.2474 90.3642 28.5116C90.0134 28.7758 89.747 29.1461 89.5651 29.6225C89.3875 30.0989 89.2987 30.6598 89.2987 31.3051ZM97.5118 40.0366V26.3157H99.8246V27.9658H99.9611C100.082 27.7233 100.253 27.4656 100.474 27.1927C100.695 26.9156 100.994 26.6795 101.371 26.4846C101.748 26.2854 102.228 26.1858 102.813 26.1858C103.584 26.1858 104.279 26.3828 104.899 26.777C105.522 27.1668 106.016 27.745 106.38 28.5116C106.748 29.2738 106.932 30.2094 106.932 31.3181C106.932 32.4139 106.752 33.3451 106.393 34.1117C106.033 34.8783 105.544 35.463 104.924 35.8658C104.305 36.2686 103.604 36.47 102.82 36.47C102.248 36.47 101.774 36.3747 101.397 36.1841C101.02 35.9935 100.717 35.764 100.487 35.4955C100.262 35.2226 100.087 34.9649 99.9611 34.7224H99.8636V40.0366H97.5118ZM99.8181 31.3051C99.8181 31.9505 99.9091 32.5157 100.091 33.0008C100.277 33.4858 100.544 33.8648 100.89 34.1377C101.241 34.4062 101.665 34.5405 102.163 34.5405C102.683 34.5405 103.118 34.4019 103.469 34.1247C103.82 33.8432 104.084 33.4598 104.262 32.9748C104.444 32.4854 104.535 31.9288 104.535 31.3051C104.535 30.6858 104.446 30.1357 104.268 29.655C104.091 29.1742 103.827 28.7974 103.476 28.5246C103.125 28.2517 102.687 28.1153 102.163 28.1153C101.661 28.1153 101.234 28.2474 100.884 28.5116C100.533 28.7758 100.266 29.1461 100.084 29.6225C99.9069 30.0989 99.8181 30.6598 99.8181 31.3051ZM114.169 22.9894V36.2946H111.758V22.9894H114.169ZM118.112 30.4476V36.2946H115.76V26.3157H118.008V28.0113H118.125C118.354 27.4526 118.72 27.0087 119.223 26.6795C119.729 26.3503 120.355 26.1858 121.1 26.1858C121.789 26.1858 122.389 26.333 122.9 26.6275C123.415 26.9221 123.814 27.3487 124.095 27.9074C124.381 28.4661 124.522 29.1439 124.517 29.9408V36.2946H122.166V30.3046C122.166 29.6377 121.992 29.1158 121.646 28.7389C121.304 28.3621 120.829 28.1737 120.223 28.1737C119.812 28.1737 119.446 28.2647 119.125 28.4466C118.809 28.6242 118.56 28.8819 118.378 29.2197C118.201 29.5575 118.112 29.9668 118.112 30.4476ZM130.976 26.3157V28.1348H125.24V26.3157H130.976ZM126.656 23.9249H129.008V33.2931C129.008 33.6093 129.056 33.8518 129.151 34.0207C129.25 34.1853 129.38 34.2979 129.541 34.3586C129.701 34.4192 129.878 34.4495 130.073 34.4495C130.221 34.4495 130.355 34.4387 130.476 34.417C130.602 34.3954 130.697 34.3759 130.762 34.3586L131.158 36.1971C131.033 36.2404 130.853 36.2881 130.619 36.34C130.39 36.392 130.108 36.4223 129.775 36.431C129.185 36.4483 128.655 36.3595 128.183 36.1646C127.711 35.9654 127.336 35.6579 127.059 35.2421C126.786 34.8263 126.652 34.3066 126.656 33.6829V23.9249ZM136.339 36.4895C135.339 36.4895 134.475 36.2816 133.747 35.8658C133.024 35.4457 132.467 34.8523 132.077 34.0857C131.687 33.3148 131.493 32.4074 131.493 31.3636C131.493 30.3371 131.687 29.4363 132.077 28.661C132.471 27.8814 133.021 27.275 133.727 26.8419C134.433 26.4045 135.263 26.1858 136.216 26.1858C136.831 26.1858 137.411 26.2854 137.957 26.4846C138.507 26.6795 138.992 26.9827 139.412 27.3941C139.836 27.8056 140.17 28.3297 140.412 28.9663C140.655 29.5987 140.776 30.3523 140.776 31.2272V31.9483H132.597V30.3631H138.522C138.518 29.9127 138.42 29.512 138.23 29.1612C138.039 28.8061 137.773 28.5267 137.43 28.3232C137.093 28.1196 136.699 28.0178 136.248 28.0178C135.767 28.0178 135.345 28.1348 134.981 28.3686C134.617 28.5982 134.334 28.9014 134.13 29.2782C133.931 29.6506 133.829 30.0599 133.825 30.506V31.8898C133.825 32.4702 133.931 32.9683 134.143 33.3841C134.355 33.7955 134.652 34.1117 135.033 34.3326C135.414 34.5491 135.86 34.6574 136.372 34.6574C136.714 34.6574 137.023 34.6098 137.301 34.5145C137.578 34.4149 137.818 34.2698 138.022 34.0792C138.225 33.8886 138.379 33.6526 138.483 33.3711L140.679 33.6179C140.54 34.1983 140.276 34.705 139.886 35.1382C139.501 35.5669 139.007 35.9004 138.405 36.1386C137.803 36.3725 137.114 36.4895 136.339 36.4895ZM146.191 40.2445C145.346 40.2445 144.621 40.1297 144.015 39.9002C143.408 39.675 142.921 39.3718 142.553 38.9907C142.185 38.6095 141.929 38.1872 141.786 37.7238L143.904 37.2106C143.999 37.4055 144.138 37.5982 144.32 37.7888C144.502 37.9837 144.746 38.1439 145.054 38.2695C145.366 38.3995 145.758 38.4644 146.23 38.4644C146.897 38.4644 147.449 38.302 147.887 37.9772C148.324 37.6567 148.543 37.1283 148.543 36.392V34.5015H148.426C148.304 34.744 148.127 34.9931 147.893 35.2486C147.663 35.5041 147.358 35.7185 146.977 35.8918C146.6 36.065 146.126 36.1516 145.554 36.1516C144.788 36.1516 144.092 35.9719 143.469 35.6124C142.849 35.2486 142.356 34.7072 141.988 33.9882C141.624 33.2649 141.442 32.3597 141.442 31.2726C141.442 30.1769 141.624 29.2522 141.988 28.4986C142.356 27.7406 142.852 27.1668 143.475 26.777C144.099 26.3828 144.794 26.1858 145.561 26.1858C146.145 26.1858 146.626 26.2854 147.003 26.4846C147.384 26.6795 147.687 26.9156 147.913 27.1927C148.138 27.4656 148.309 27.7233 148.426 27.9658H148.556V26.3157H150.875V36.457C150.875 37.3102 150.671 38.0162 150.264 38.5749C149.857 39.1336 149.301 39.5515 148.595 39.8287C147.889 40.1059 147.087 40.2445 146.191 40.2445ZM146.21 34.3066C146.708 34.3066 147.133 34.1853 147.484 33.9428C147.835 33.7002 148.101 33.3516 148.283 32.8968C148.465 32.442 148.556 31.8963 148.556 31.2596C148.556 30.6316 148.465 30.0816 148.283 29.6095C148.105 29.1374 147.841 28.7714 147.49 28.5116C147.144 28.2474 146.717 28.1153 146.21 28.1153C145.686 28.1153 145.249 28.2517 144.898 28.5246C144.547 28.7974 144.283 29.1721 144.105 29.6485C143.928 30.1206 143.839 30.6576 143.839 31.2596C143.839 31.8703 143.928 32.4052 144.105 32.8643C144.287 33.3191 144.554 33.6742 144.905 33.9298C145.26 34.181 145.695 34.3066 146.21 34.3066ZM152.371 36.2946V26.3157H154.651V27.9788H154.755C154.937 27.4028 155.249 26.9589 155.69 26.647C156.136 26.3309 156.645 26.1728 157.217 26.1728C157.347 26.1728 157.492 26.1793 157.652 26.1923C157.817 26.2009 157.953 26.2161 158.062 26.2377V28.4011C157.962 28.3665 157.804 28.3362 157.587 28.3102C157.375 28.2799 157.169 28.2647 156.97 28.2647C156.541 28.2647 156.156 28.3578 155.814 28.544C155.476 28.726 155.21 28.9793 155.015 29.3042C154.82 29.629 154.722 30.0036 154.722 30.4281V36.2946H152.371ZM161.402 36.496C160.77 36.496 160.2 36.3833 159.694 36.1581C159.191 35.9286 158.793 35.5908 158.498 35.1446C158.208 34.6985 158.063 34.1485 158.063 33.4945C158.063 32.9315 158.167 32.4659 158.375 32.0977C158.583 31.7296 158.866 31.4351 159.226 31.2142C159.585 30.9933 159.99 30.8265 160.441 30.7139C160.895 30.597 161.365 30.5125 161.85 30.4606C162.435 30.3999 162.909 30.3458 163.273 30.2981C163.637 30.2462 163.901 30.1682 164.066 30.0643C164.235 29.956 164.319 29.7892 164.319 29.564V29.525C164.319 29.0356 164.174 28.6567 163.884 28.3881C163.594 28.1196 163.176 27.9853 162.63 27.9853C162.054 27.9853 161.597 28.1109 161.259 28.3621C160.926 28.6133 160.701 28.91 160.584 29.2522L158.388 28.9403C158.561 28.334 158.847 27.8273 159.245 27.4201C159.644 27.0087 160.131 26.7012 160.707 26.4976C161.283 26.2897 161.92 26.1858 162.617 26.1858C163.098 26.1858 163.576 26.2421 164.053 26.3547C164.529 26.4673 164.964 26.6535 165.359 26.9134C165.753 27.1689 166.069 27.5176 166.307 27.9593C166.55 28.4011 166.671 28.9533 166.671 29.616V36.2946H164.41V34.9238H164.332C164.189 35.201 163.988 35.4608 163.728 35.7034C163.472 35.9416 163.15 36.1343 162.76 36.2816C162.374 36.4245 161.922 36.496 161.402 36.496ZM162.013 34.7678C162.485 34.7678 162.894 34.6747 163.241 34.4885C163.587 34.2979 163.854 34.0467 164.04 33.7349C164.23 33.423 164.326 33.083 164.326 32.7149V31.539C164.252 31.5996 164.126 31.6559 163.949 31.7079C163.776 31.7599 163.581 31.8054 163.364 31.8443C163.148 31.8833 162.933 31.918 162.721 31.9483C162.509 31.9786 162.325 32.0046 162.169 32.0263C161.818 32.0739 161.504 32.1519 161.227 32.2601C160.95 32.3684 160.731 32.52 160.571 32.7149C160.41 32.9055 160.33 33.1523 160.33 33.4555C160.33 33.8886 160.488 34.2156 160.804 34.4365C161.121 34.6574 161.523 34.7678 162.013 34.7678ZM173.104 26.3157V28.1348H167.367V26.3157H173.104ZM168.784 23.9249H171.135V33.2931C171.135 33.6093 171.183 33.8518 171.278 34.0207C171.378 34.1853 171.508 34.2979 171.668 34.3586C171.828 34.4192 172.006 34.4495 172.201 34.4495C172.348 34.4495 172.482 34.4387 172.604 34.417C172.729 34.3954 172.825 34.3759 172.89 34.3586L173.286 36.1971C173.16 36.2404 172.981 36.2881 172.747 36.34C172.517 36.392 172.236 36.4223 171.902 36.431C171.313 36.4483 170.782 36.3595 170.31 36.1646C169.838 35.9654 169.464 35.6579 169.186 35.2421C168.914 34.8263 168.779 34.3066 168.784 33.6829V23.9249ZM174.156 36.2946V26.3157H176.508V36.2946H174.156ZM175.338 24.8994C174.966 24.8994 174.645 24.776 174.377 24.5291C174.108 24.2779 173.974 23.9769 173.974 23.6261C173.974 23.2709 174.108 22.9699 174.377 22.723C174.645 22.4718 174.966 22.3462 175.338 22.3462C175.715 22.3462 176.036 22.4718 176.3 22.723C176.568 22.9699 176.703 23.2709 176.703 23.6261C176.703 23.9769 176.568 24.2779 176.3 24.5291C176.036 24.776 175.715 24.8994 175.338 24.8994ZM182.364 36.4895C181.39 36.4895 180.545 36.2751 179.831 35.8463C179.116 35.4175 178.562 34.8176 178.167 34.0467C177.778 33.2758 177.583 32.3749 177.583 31.3441C177.583 30.3133 177.778 29.4103 178.167 28.635C178.562 27.8597 179.116 27.2577 179.831 26.8289C180.545 26.4002 181.39 26.1858 182.364 26.1858C183.339 26.1858 184.183 26.4002 184.898 26.8289C185.613 27.2577 186.165 27.8597 186.555 28.635C186.949 29.4103 187.146 30.3133 187.146 31.3441C187.146 32.3749 186.949 33.2758 186.555 34.0467C186.165 34.8176 185.613 35.4175 184.898 35.8463C184.183 36.2751 183.339 36.4895 182.364 36.4895ZM182.377 34.6054C182.906 34.6054 183.347 34.4603 183.703 34.1702C184.058 33.8756 184.322 33.4815 184.495 32.9878C184.673 32.494 184.762 31.944 184.762 31.3376C184.762 30.7269 184.673 30.1747 184.495 29.681C184.322 29.1829 184.058 28.7866 183.703 28.4921C183.347 28.1976 182.906 28.0503 182.377 28.0503C181.836 28.0503 181.385 28.1976 181.026 28.4921C180.671 28.7866 180.404 29.1829 180.227 29.681C180.054 30.1747 179.967 30.7269 179.967 31.3376C179.967 31.944 180.054 32.494 180.227 32.9878C180.404 33.4815 180.671 33.8756 181.026 34.1702C181.385 34.4603 181.836 34.6054 182.377 34.6054ZM190.579 30.4476V36.2946H188.227V26.3157H190.475V28.0113H190.592C190.822 27.4526 191.187 27.0087 191.69 26.6795C192.197 26.3503 192.822 26.1858 193.567 26.1858C194.256 26.1858 194.856 26.333 195.367 26.6275C195.882 26.9221 196.281 27.3487 196.562 27.9074C196.848 28.4661 196.989 29.1439 196.985 29.9408V36.2946H194.633V30.3046C194.633 29.6377 194.46 29.1158 194.113 28.7389C193.771 28.3621 193.297 28.1737 192.69 28.1737C192.279 28.1737 191.913 28.2647 191.592 28.4466C191.276 28.6242 191.027 28.8819 190.845 29.2197C190.668 29.5575 190.579 29.9668 190.579 30.4476Z" fill="#0F0E1A"/>
<rect x="20.5814" y="49.1667" width="140.64" height="6.86047" rx="1.31098" fill="#252525" fill-opacity="0.28"/>
<rect x="20.636" y="49.2214" width="140.53" height="6.75122" rx="1.25636" stroke="#252525" stroke-opacity="0.08" stroke-width="0.109249"/>
<rect x="164.651" y="49.1667" width="53.7403" height="6.86047" rx="1.31098" fill="#252525" fill-opacity="0.09"/>
<rect x="164.706" y="49.2214" width="53.6311" height="6.75122" rx="1.25636" stroke="#252525" stroke-opacity="0.08" stroke-width="0.109249"/>
<rect x="21.153" y="73.7501" width="74.3217" height="74.3217" rx="8.57558" fill="#EFFFEA" stroke="#C4FFB4" stroke-width="1.14341"/>
<path d="M57.7424 84.6124C57.7424 84.6124 66.0544 87.3573 67.6586 91.2557C69.173 90.4369 70.907 89.972 72.7495 89.972C78.6697 89.972 83.4691 94.7714 83.4691 100.692V119.987C83.4691 125.907 78.6697 130.706 72.7495 130.706C70.9069 130.706 69.1731 130.241 67.6586 129.422C66.0545 133.321 62.2195 136.066 57.7424 136.066C53.2652 136.066 49.4297 133.321 47.8256 129.422C46.3112 130.241 44.5777 130.706 42.7353 130.706C36.8151 130.706 32.0156 125.907 32.0156 119.987V100.692C32.0156 94.7714 36.8151 89.972 42.7353 89.972C44.5776 89.972 46.3113 90.437 47.8256 91.2557C49.4298 87.3572 57.7424 84.6124 57.7424 84.6124Z" fill="#039A6A"/>
<path d="M67.6514 100.931C72.5824 100.932 75.0517 107.294 71.565 111.015L63.9701 119.121C63.6215 119.493 63.0254 119.229 63.0252 118.703V111.564L63.903 110.627C64.6003 109.883 64.1065 108.61 63.1203 108.61H51.9555L58.5025 101.624C58.9177 101.181 59.4816 100.931 60.0688 100.931H67.6514ZM51.0106 101.054C51.3592 100.682 51.9555 100.946 51.9555 101.472V108.61L51.0776 109.547C50.3805 110.291 50.8746 111.564 51.8608 111.564H63.0252L56.4782 118.551C56.0631 118.994 55.4994 119.243 54.9123 119.243H47.3293C42.3983 119.243 39.929 112.88 43.4157 109.159L51.0106 101.054Z" fill="white"/>
<rect x="125.775" y="89.186" width="42.3062" height="42.3062" rx="7.33882" fill="#4350E2"/>
<path fill-rule="evenodd" clip-rule="evenodd" d="M135.237 107.11V117.523H138.492C138.834 117.523 139.172 117.591 139.488 117.722C139.804 117.853 140.091 118.044 140.333 118.286C140.574 118.528 140.766 118.815 140.897 119.131C141.028 119.447 141.095 119.785 141.095 120.127V123.381H148.906L158.669 113.618V103.204H155.414C155.072 103.204 154.734 103.137 154.418 103.006C154.102 102.875 153.815 102.684 153.573 102.442C153.332 102.2 153.14 101.913 153.009 101.597C152.878 101.281 152.811 100.943 152.811 100.601V97.3467H145L135.237 107.11ZM146.302 116.873H141.746V109.713L147.604 103.855H152.16V111.015L146.302 116.873Z" fill="white"/>
<rect x="110.339" y="73.7501" width="74.3217" height="74.3217" rx="8.57558" stroke="#EDEDED" stroke-width="1.14341"/>
<g clip-path="url(#clip0_2007_1349)">
<path d="M91.4729 88.0427C97.7878 88.0427 102.907 82.9234 102.907 76.6085C102.907 70.2937 97.7878 65.1744 91.4729 65.1744C85.158 65.1744 80.0388 70.2937 80.0388 76.6085C80.0388 82.9234 85.158 88.0427 91.4729 88.0427Z" fill="#48B02C"/>
<path fill-rule="evenodd" clip-rule="evenodd" d="M97.1696 74.4762C97.1599 74.4867 97.15 74.4971 97.1398 74.5073L90.5626 81.0845C90.422 81.2251 90.2524 81.3213 90.0723 81.3729C89.6806 81.4898 89.2351 81.3958 88.9299 81.0907L85.0456 77.2064C84.6044 76.7652 84.6004 76.0348 85.0456 75.5895C85.4909 75.1443 86.2174 75.1442 86.6627 75.5894L89.7426 78.6693L96.2834 72.1284C96.7286 71.6831 97.4575 71.6857 97.9003 72.1284C98.3431 72.5712 98.3432 73.3026 97.9004 73.7454L97.1696 74.4762Z" fill="white"/>
</g>
<path d="M245.9 88.2659C253.441 88.2659 259.554 94.1528 259.554 101.414C259.554 105.206 257.886 108.623 255.219 111.023C257.886 113.422 259.554 116.839 259.554 120.631C259.554 127.892 253.441 133.779 245.9 133.779C242.403 133.779 239.213 132.512 236.798 130.43C234.382 132.512 231.192 133.779 227.695 133.779C220.154 133.779 214.041 127.892 214.041 120.631C214.041 117.059 215.52 113.821 217.92 111.452C215.52 108.991 214.041 105.628 214.041 101.92C214.041 94.379 220.154 88.2659 227.695 88.2659C231.157 88.2659 234.317 89.5545 236.724 91.6776C239.148 89.5575 242.368 88.2659 245.9 88.2659Z" fill="#FA7933"/>
<path d="M235.705 116.658C235.705 113.486 239.594 111.959 241.752 114.283L247.196 120.146L245.15 122.046L239.706 116.183C239.274 115.718 238.497 116.023 238.497 116.658V125.283H235.705V116.658ZM231.769 109.93C234.891 109.93 236.42 113.698 234.25 115.874L234.144 115.977L228.281 121.421L226.381 119.375L232.244 113.931L232.323 113.846C232.67 113.405 232.364 112.722 231.769 112.722H223.144V109.93H231.769ZM247.821 103.277L241.957 108.721C241.493 109.153 241.798 109.93 242.432 109.93H251.058V112.722H242.432C239.261 112.722 237.734 108.833 240.058 106.675L245.921 101.231L247.821 103.277ZM234.496 106.47L234.581 106.548C235.022 106.895 235.705 106.589 235.705 105.995V97.3687H238.497V105.995C238.497 109.116 234.729 110.645 232.553 108.475L232.45 108.369L227.006 102.506L229.052 100.606L234.496 106.47Z" fill="white"/>
<rect x="199.525" y="73.7501" width="74.3217" height="74.3217" rx="8.57558" stroke="#EDEDED" stroke-width="1.14341"/>
<defs>
<clipPath id="clip0_2007_1349">
<rect width="22.8682" height="22.8682" fill="white" transform="translate(80.0388 65.1744)"/>
</clipPath>
</defs>
</svg>
