<svg width="96" height="96" viewBox="0 0 96 96" fill="none" xmlns="http://www.w3.org/2000/svg">
<path d="M48.4438 0.943848C48.4438 0.943848 63.7906 6.01183 66.7524 13.2095C69.5486 11.6977 72.7501 10.8394 76.1519 10.8394C87.0825 10.8394 95.9438 19.7007 95.9438 30.6313V66.2563C95.9438 77.187 87.0825 86.0483 76.1519 86.0483C72.7499 86.0483 69.5487 85.1892 66.7524 83.6772C63.7908 90.8753 56.7101 95.9438 48.4438 95.9438C40.1775 95.9438 33.0959 90.8755 30.1343 83.6772C27.3382 85.1889 24.1375 86.0483 20.7358 86.0483C9.8052 86.0483 0.943848 77.187 0.943848 66.2563V30.6313C0.943853 19.7007 9.80521 10.8394 20.7358 10.8394C24.1373 10.8394 27.3383 11.6979 30.1343 13.2095C33.0961 6.01165 48.4438 0.943848 48.4438 0.943848Z" fill="#111111"/>
<path d="M66.7392 31.0742C75.8434 31.0742 80.4025 42.8216 73.9649 49.6919L59.9423 64.6572C59.2986 65.3439 58.198 64.8574 58.1977 63.8861V50.7054L59.8185 48.9755C61.1059 47.6015 60.1941 45.2519 58.3733 45.2518H37.7593L49.8473 32.3525C50.6139 31.5344 51.6551 31.0742 52.7392 31.0742H66.7392ZM36.0148 31.3C36.6585 30.6131 37.7593 31.1004 37.7593 32.0719V45.2518L36.1386 46.9817C34.8513 48.3558 35.7638 50.7054 37.5845 50.7054H58.1977L46.1098 63.6047C45.3433 64.4228 44.3027 64.8829 43.2187 64.883H29.2179C20.1136 64.8829 15.5545 53.1357 21.9921 46.2653L36.0148 31.3Z" fill="white"/>
</svg>
