<svg width="58" height="58" viewBox="0 0 58 58" fill="none" xmlns="http://www.w3.org/2000/svg">
<path d="M58 29C58 45.0163 45.0163 58 29 58C12.9837 58 0 45.0163 0 29C0 12.9837 12.9837 0 29 0C45.0163 0 58 12.9837 58 29Z" fill="#3776D7"/>
<path fill-rule="evenodd" clip-rule="evenodd" d="M29 45.5714C38.1522 45.5714 45.5714 38.1522 45.5714 29C45.5714 19.8478 38.1522 12.4286 29 12.4286C19.8478 12.4286 12.4286 19.8478 12.4286 29C12.4286 38.1522 19.8478 45.5714 29 45.5714ZM34.1697 20.1482C34.4213 19.2544 33.5539 18.7258 32.7617 19.2902L21.7029 27.1685C20.8437 27.7806 20.9788 29 21.9059 29H24.818V28.9775H30.4935L25.869 30.6092L23.8303 37.8518C23.5787 38.7457 24.446 39.2742 25.2383 38.7098L36.2971 30.8316C37.1563 30.2195 37.0211 29 36.0941 29H31.678L34.1697 20.1482Z" fill="white"/>
</svg>
