<svg width="88" height="22" viewBox="0 0 88 22" fill="none" xmlns="http://www.w3.org/2000/svg">
<g clip-path="url(#clip0_2008_1979)">
<path d="M10.141 6.6651C10.4805 6.52645 10.845 6.45792 11.2122 6.46372C11.5821 6.4614 11.9488 6.53149 12.2911 6.66997C12.6334 6.80844 12.9448 7.01256 13.2072 7.27059C13.4696 7.52862 13.6779 7.83546 13.82 8.17347C13.9622 8.51148 14.0354 8.87397 14.0356 9.24012C14.0321 9.9758 13.7339 10.6801 13.2064 11.1983C12.679 11.7165 11.9653 12.0065 11.2222 12.0044C10.8505 12.0054 10.4823 11.9334 10.139 11.7923C9.79566 11.6513 9.48406 11.4441 9.2223 11.1828C8.96055 10.9215 8.75385 10.6113 8.61421 10.2703C8.47458 9.92921 8.4048 9.56409 8.40892 9.19612C8.40646 8.83598 8.47876 8.47918 8.62135 8.14786C8.76393 7.81653 8.97376 7.51774 9.23781 7.27002C9.49411 7.00959 9.80145 6.80375 10.141 6.6651Z" fill="black" fill-opacity="0.6"/>
<path fill-rule="evenodd" clip-rule="evenodd" d="M3.36545 3.22182C5.4492 1.15893 8.27534 0 11.2222 0C14.1691 0 16.9952 1.15893 19.079 3.22182C21.1626 5.28473 22.3333 8.08261 22.3333 11C22.3333 13.9174 21.1626 16.7153 19.079 18.7782C16.9952 20.841 14.1691 22 11.2222 22H2.77775C2.07051 22 1.39223 21.7218 0.892133 21.2268C0.392035 20.7317 0.111084 20.0601 0.111084 19.36V11C0.111084 8.08261 1.28172 5.28473 3.36545 3.22182ZM9.56553 19.8616L14.7578 12.9151C15.7341 11.5937 16.2222 10.3635 16.2222 9.2246C16.2222 7.94126 15.7211 6.8277 14.7189 5.8839C14.254 5.42691 13.7021 5.06585 13.0952 4.8217C12.4882 4.57754 11.8384 4.45514 11.1833 4.4616C10.5304 4.45311 9.8827 4.57662 9.27973 4.82459C8.67676 5.07255 8.13127 5.43975 7.67664 5.9037C7.20791 6.3499 6.83691 6.88679 6.58668 7.481C6.33647 8.0752 6.21241 8.714 6.2222 9.3577C6.21153 9.95662 6.32147 10.5517 6.54563 11.108C6.7698 11.6644 7.10366 12.1711 7.52775 12.5983C8.40701 13.5025 9.44738 13.9546 10.6489 13.9546C10.7389 13.9546 10.8466 13.948 10.9822 13.9359C11.1178 13.9238 11.2811 13.904 11.4733 13.8787L7.91775 18.6516L9.56553 19.8616Z" fill="black" fill-opacity="0.6"/>
<path d="M46.8627 16.2799V1.42993H45.0462V16.2799H46.8627Z" fill="black" fill-opacity="0.6"/>
<path d="M71.801 5.81934V16.2801H69.9846V5.81934H71.801Z" fill="black" fill-opacity="0.6"/>
<path d="M69.8479 3.04448C69.8479 2.75445 69.9358 2.50953 70.1116 2.30972C70.2939 2.10991 70.5608 2.01001 70.9123 2.01001C71.2573 2.01001 71.521 2.10991 71.7033 2.30972C71.8921 2.50953 71.9866 2.75445 71.9866 3.04448C71.9866 3.32164 71.8921 3.56011 71.7033 3.75991C71.521 3.95328 71.2573 4.04996 70.9123 4.04996C70.5608 4.04996 70.2939 3.95328 70.1116 3.75991C69.9358 3.56011 69.8479 3.32164 69.8479 3.04448Z" fill="black" fill-opacity="0.6"/>
<path d="M78.5252 7.19214V5.81928H76.5525V3.27661H74.7459V5.81928H72.8123V7.19214H74.7459V13.6793C74.7459 14.3755 74.8533 14.9298 75.0681 15.3423C75.2894 15.7483 75.5857 16.0384 75.9568 16.2124C76.3279 16.3864 76.7348 16.4734 77.1775 16.4734C77.503 16.4734 77.7798 16.4509 78.0075 16.4058C78.242 16.367 78.4308 16.3251 78.574 16.28L78.5642 14.8202C78.4795 14.8395 78.3527 14.8653 78.1833 14.8976C78.0207 14.9233 77.8643 14.9362 77.7147 14.9362C77.5128 14.9362 77.324 14.9072 77.1482 14.8492C76.9724 14.7912 76.8292 14.6719 76.7185 14.4914C76.6079 14.311 76.5525 14.0435 76.5525 13.689V7.19214H78.5252Z" fill="black" fill-opacity="0.6"/>
<path d="M82.6538 16.1672L78.8821 5.81934H80.8548L83.4994 13.6457L85.9525 5.81934H87.8861L83.6478 17.8947C83.5501 18.1524 83.4199 18.4296 83.2571 18.726C83.1009 19.029 82.8991 19.3159 82.6517 19.5866C82.4044 19.8573 82.1048 20.0764 81.7532 20.2439C81.4082 20.418 80.9948 20.505 80.513 20.505C80.3698 20.505 80.1876 20.4856 79.9661 20.447C79.7448 20.4083 79.5886 20.376 79.4975 20.3503L79.4877 18.9001C79.5397 18.9066 79.6211 18.913 79.7318 18.9194C79.849 18.9323 79.9304 18.9388 79.9759 18.9388C80.3861 18.9388 80.7344 18.884 81.0209 18.7744C81.3074 18.6713 81.5482 18.4941 81.7435 18.2427C81.9454 17.9977 82.1179 17.6594 82.2611 17.2275L82.6538 16.1672Z" fill="black" fill-opacity="0.6"/>
<path d="M65.3892 14.7428C65.0247 14.9169 64.6274 15.0039 64.1978 15.0039C63.6379 15.0039 63.1691 14.8976 62.7916 14.6849C62.4204 14.4657 62.1242 14.1757 61.9029 13.8148C61.688 13.4539 61.535 13.051 61.4439 12.6063C61.3528 12.1616 61.3072 11.7104 61.3072 11.2528V10.8467C61.3072 10.3891 61.3528 9.94111 61.4439 9.50284C61.5415 9.05811 61.6978 8.65528 61.9127 8.29433C62.134 7.92696 62.4302 7.63692 62.8013 7.42422C63.1789 7.20508 63.6444 7.09551 64.1978 7.09551C64.6796 7.09551 65.0995 7.20186 65.4575 7.41455C65.8221 7.6208 66.1087 7.89795 66.317 8.246C66.5318 8.59405 66.6554 8.98399 66.688 9.41583H68.4068C68.3742 8.69395 68.1789 8.04942 67.8209 7.48223C67.4693 6.9086 66.9842 6.45742 66.3658 6.12871C65.7473 5.79356 65.0247 5.62598 64.1978 5.62598C63.4036 5.62598 62.7102 5.76455 62.1178 6.0417C61.5318 6.31886 61.0435 6.69913 60.6529 7.18252C60.2688 7.66593 59.9791 8.22344 59.7838 8.85508C59.5949 9.48028 59.5005 10.1441 59.5005 10.8467V11.2528C59.5005 11.9553 59.5949 12.6224 59.7838 13.254C59.9791 13.8792 60.2688 14.4335 60.6529 14.9169C61.0435 15.4003 61.5318 15.7806 62.1178 16.0578C62.7102 16.3349 63.4036 16.4735 64.1978 16.4735C64.9466 16.4735 65.6333 16.3123 66.2583 15.99C66.8833 15.6613 67.3879 15.2328 67.772 14.7042C68.1627 14.1693 68.3742 13.5923 68.4068 12.9736H66.688C66.6554 13.3668 66.522 13.7181 66.2877 14.0274C66.0532 14.3303 65.7538 14.5688 65.3892 14.7428Z" fill="black" fill-opacity="0.6"/>
<path fill-rule="evenodd" clip-rule="evenodd" d="M48.6846 11.1657V10.9434C48.6846 10.1893 48.7952 9.48995 49.0166 8.84541C49.238 8.19443 49.557 7.63047 49.9737 7.15351C50.3903 6.67012 50.8949 6.29629 51.4873 6.03203C52.0798 5.76133 52.7438 5.62598 53.4795 5.62598C54.2217 5.62598 54.889 5.76133 55.4815 6.03203C56.0805 6.29629 56.5882 6.67012 57.0049 7.15351C57.4281 7.63047 57.7503 8.19443 57.9717 8.84541C58.193 9.48995 58.3037 10.1893 58.3037 10.9434V11.1657C58.3037 11.9198 58.193 12.6192 57.9717 13.2637C57.7503 13.9083 57.4281 14.4721 57.0049 14.9556C56.5882 15.4325 56.0837 15.8063 55.4912 16.077C54.9052 16.3414 54.2412 16.4735 53.499 16.4735C52.7569 16.4735 52.0896 16.3414 51.4971 16.077C50.9047 15.8063 50.3968 15.4325 49.9737 14.9556C49.557 14.4721 49.238 13.9083 49.0166 13.2637C48.7952 12.6192 48.6846 11.9198 48.6846 11.1657ZM50.4912 10.9434V11.1657C50.4912 11.6878 50.5531 12.1808 50.6768 12.6449C50.8005 13.1025 50.986 13.5086 51.2335 13.8631C51.4873 14.2176 51.8031 14.498 52.1807 14.7042C52.5582 14.904 52.9978 15.0039 53.499 15.0039C53.9938 15.0039 54.4268 14.904 54.7979 14.7042C55.1755 14.498 55.488 14.2176 55.7353 13.8631C55.9828 13.5086 56.1683 13.1025 56.292 12.6449C56.4222 12.1808 56.4873 11.6878 56.4873 11.1657V10.9434C56.4873 10.4277 56.4222 9.94111 56.292 9.4835C56.1683 9.01943 55.9795 8.61015 55.7256 8.25567C55.4782 7.89473 55.1657 7.61114 54.7881 7.40489C54.417 7.19864 53.9808 7.09551 53.4795 7.09551C52.9847 7.09551 52.5486 7.19864 52.1709 7.40489C51.7998 7.61114 51.4873 7.89473 51.2335 8.25567C50.986 8.61015 50.8005 9.01943 50.6768 9.4835C50.5531 9.94111 50.4912 10.4277 50.4912 10.9434Z" fill="black" fill-opacity="0.6"/>
<path fill-rule="evenodd" clip-rule="evenodd" d="M39.2791 16.4735C38.5434 16.4735 37.8761 16.351 37.2771 16.1061C36.6846 15.8547 36.1735 15.5034 35.7439 15.0523C35.3208 14.601 34.9952 14.0661 34.7673 13.4474C34.5394 12.8286 34.4255 12.1519 34.4255 11.4171V11.0111C34.4255 10.1603 34.5525 9.40294 34.8064 8.73906C35.0603 8.06876 35.4053 7.50156 35.8415 7.03751C36.2778 6.57344 36.7725 6.22218 37.326 5.9837C37.8793 5.74522 38.4522 5.62598 39.0447 5.62598C39.7999 5.62598 40.451 5.75489 40.9978 6.0127C41.5512 6.27051 42.0036 6.63145 42.3552 7.09551C42.7068 7.55313 42.9672 8.09453 43.1365 8.71973C43.3058 9.33848 43.3904 10.0152 43.3904 10.75V11.5524H36.2436C36.255 11.9986 36.3228 12.4207 36.447 12.8189C36.5902 13.2508 36.7953 13.6311 37.0623 13.9597C37.3357 14.2885 37.6644 14.5463 38.0486 14.7333C38.4392 14.9202 38.882 15.0135 39.3768 15.0135C40.0148 15.0135 40.5551 14.8846 40.9978 14.6269C41.4405 14.3691 41.8279 14.0242 42.1599 13.5923L43.2536 14.4529C43.0258 14.7944 42.7361 15.1199 42.3845 15.4293C42.033 15.7387 41.6 15.99 41.0856 16.1834C40.5779 16.3768 39.9756 16.4735 39.2791 16.4735ZM36.2965 10.0926H41.5838V9.95723C41.5578 9.49317 41.4601 9.04199 41.2908 8.60371C41.128 8.16544 40.8676 7.80449 40.5095 7.5209C40.1514 7.23731 39.6632 7.09551 39.0447 7.09551C38.6345 7.09551 38.2569 7.18252 37.9119 7.35655C37.5669 7.52413 37.2707 7.77549 37.0232 8.11065C36.7758 8.4458 36.5838 8.85508 36.447 9.33848C36.3809 9.57248 36.3307 9.82384 36.2965 10.0926Z" fill="black" fill-opacity="0.6"/>
<path d="M28.717 16.2801L24.8889 5.81934H26.7444L29.4283 13.8339L32.0471 5.81934H33.8928L30.094 16.2801H28.717Z" fill="black" fill-opacity="0.6"/>
</g>
<defs>
<clipPath id="clip0_2008_1979">
<rect width="88" height="22" fill="white"/>
</clipPath>
</defs>
</svg>
