<svg width="131" height="22" viewBox="0 0 131 22" fill="none" xmlns="http://www.w3.org/2000/svg">
<g clip-path="url(#clip0_2008_1991)">
<path d="M114.678 17.6703V6.71869H117.539V8.66806H117.675C117.903 8.02152 118.283 7.51214 118.817 7.13991C119.351 6.76768 119.985 6.58154 120.721 6.58154C121.469 6.58154 122.104 6.77096 122.624 7.14973C123.151 7.52196 123.503 8.02807 123.678 8.66806H123.796C124.017 8.03462 124.42 7.52851 125.006 7.14973C125.592 6.77096 126.281 6.58154 127.075 6.58154C128.09 6.58154 128.917 6.90484 129.555 7.55137C130.199 8.19785 130.521 9.11541 130.521 10.3039V17.6703H127.495V10.9113C127.495 10.2974 127.333 9.84028 127.007 9.5399C126.688 9.23946 126.288 9.08927 125.807 9.08927C125.26 9.08927 124.83 9.2656 124.518 9.61824C124.212 9.96439 124.059 10.4215 124.059 10.9896V17.6703H121.131V10.8329C121.131 10.3039 120.978 9.88272 120.672 9.56925C120.366 9.24928 119.966 9.08927 119.471 9.08927C119.133 9.08927 118.83 9.17416 118.564 9.34399C118.297 9.51377 118.085 9.74885 117.929 10.0493C117.773 10.3431 117.695 10.6958 117.695 11.1072V17.6703H114.678Z" fill="black" fill-opacity="0.6"/>
<path d="M110.376 13.0172V6.71851H113.392V17.6702H110.493V15.6816H110.376C110.129 16.3151 109.722 16.831 109.156 17.2294C108.589 17.6212 107.896 17.8139 107.077 17.8073C106.347 17.8073 105.704 17.6441 105.144 17.3175C104.59 16.9845 104.158 16.511 103.846 15.8971C103.54 15.2833 103.387 14.5486 103.387 13.6931V6.71851H106.403V13.1641C106.403 13.8041 106.575 14.3135 106.921 14.6923C107.266 15.0645 107.724 15.2474 108.297 15.2408C108.661 15.2408 109 15.1592 109.312 14.9959C109.624 14.8262 109.878 14.5747 110.073 14.2416C110.275 13.9086 110.376 13.5005 110.376 13.0172Z" fill="black" fill-opacity="0.6"/>
<path d="M102.364 9.84355L99.6012 10.0101C99.5295 9.66396 99.3376 9.36685 99.0253 9.11868C98.713 8.86396 98.2933 8.73663 97.7661 8.73663C97.2977 8.73663 96.9042 8.83461 96.585 9.03052C96.2727 9.22643 96.1166 9.48764 96.1166 9.81415C96.1166 10.0754 96.2176 10.3007 96.4192 10.4901C96.6272 10.673 96.9822 10.8166 97.4832 10.9211L99.4648 11.3129C100.526 11.5284 101.316 11.8778 101.837 12.3611C102.358 12.8443 102.617 13.4811 102.617 14.2712C102.617 14.9961 102.409 15.6296 101.993 16.1716C101.576 16.7071 101.004 17.1283 100.275 17.4353C99.5461 17.7357 98.7098 17.8859 97.7661 17.8859C96.3214 17.8859 95.1696 17.5822 94.3109 16.9749C93.4581 16.3675 92.9603 15.5447 92.8175 14.5063L95.7749 14.3496C95.8727 14.7937 96.0936 15.13 96.4385 15.3586C96.7839 15.5871 97.2261 15.7014 97.7661 15.7014C98.2933 15.7014 98.7195 15.5969 99.0451 15.3879C99.3766 15.179 99.5429 14.9145 99.5429 14.5945C99.5429 14.0525 99.0745 13.6867 98.1372 13.4974L96.2535 13.1056C95.1926 12.89 94.4018 12.5211 93.881 11.9986C93.3608 11.4762 93.1004 10.8068 93.1004 9.99047C93.1004 9.28518 93.2923 8.67787 93.6762 8.16849C94.0601 7.65911 94.597 7.26725 95.2867 6.993C95.9834 6.71869 96.7967 6.58154 97.7271 6.58154C99.1066 6.58154 100.19 6.87543 100.977 7.46321C101.771 8.04438 102.233 8.83783 102.364 9.84355Z" fill="black" fill-opacity="0.6"/>
<path d="M81.8573 21.765V6.71869H84.8249V8.57013H84.9612C85.0981 8.26969 85.2932 7.96604 85.5472 7.65911C85.8007 7.35219 86.1327 7.09747 86.5428 6.89502C86.9529 6.68607 87.4604 6.58154 88.0656 6.58154C88.8661 6.58154 89.5981 6.79054 90.2616 7.20849C90.9321 7.61989 91.469 8.24356 91.8721 9.07951C92.2758 9.9154 92.4774 10.9603 92.4774 12.2141C92.4774 13.4288 92.2822 14.4573 91.8919 15.2998C91.5016 16.1357 90.9712 16.7692 90.3007 17.2002C89.6371 17.6312 88.8885 17.8467 88.0555 17.8467C87.47 17.8467 86.9722 17.7487 86.5621 17.5528C86.1525 17.3569 85.8172 17.112 85.5569 16.8181C85.3029 16.5177 85.1045 16.2173 84.9612 15.9169H84.8735V21.765H81.8573ZM87.0989 15.4369C87.5935 15.4369 88.01 15.2998 88.3485 15.0255C88.6869 14.7512 88.9441 14.3724 89.1195 13.8892C89.2954 13.3994 89.3831 12.8378 89.3831 12.2043C89.3831 11.5709 89.2954 11.0158 89.1195 10.5391C88.9505 10.0558 88.6966 9.67705 88.3581 9.40275C88.0196 9.12845 87.5999 8.99135 87.0989 8.99135C86.6113 8.99135 86.1947 9.12517 85.8499 9.39293C85.5114 9.65419 85.251 10.0264 85.0687 10.5097C84.8933 10.9864 84.8051 11.5513 84.8051 12.2043C84.8051 12.8508 84.8965 13.4158 85.0783 13.899C85.2606 14.3823 85.521 14.761 85.8595 15.0353C86.2044 15.303 86.6177 15.4369 87.0989 15.4369Z" fill="black" fill-opacity="0.6"/>
<path d="M77.5547 17.6702V6.71856H80.5709V17.6702H77.5547ZM79.0577 5.31778C78.6086 5.31778 78.2247 5.16758 77.906 4.86718C77.5873 4.56677 77.428 4.20433 77.428 3.77985C77.428 3.35536 77.5873 2.99619 77.906 2.70231C78.2247 2.40191 78.6086 2.25171 79.0577 2.25171C79.5133 2.25171 79.9004 2.40191 80.2196 2.70231C80.5383 2.99619 80.6976 3.35536 80.6976 3.77985C80.6976 4.20433 80.5383 4.56677 80.2196 4.86718C79.9004 5.16758 79.5133 5.31778 79.0577 5.31778Z" fill="black" fill-opacity="0.6"/>
<path d="M71.3485 17.8859C70.2486 17.8859 69.2952 17.6508 68.4884 17.1806C67.6879 16.7039 67.0698 16.0443 66.6335 15.2018C66.2042 14.3529 65.9897 13.3668 65.9897 12.2435C65.9897 11.1072 66.2042 10.1179 66.6335 9.27542C67.0698 8.42643 67.6879 7.76686 68.4884 7.29665C69.2952 6.81995 70.2486 6.58154 71.3485 6.58154C72.4547 6.58154 73.4081 6.81995 74.2085 7.29665C75.0154 7.76686 75.6335 8.42643 76.0628 9.27542C76.4992 10.1179 76.7173 11.1072 76.7173 12.2435C76.7173 13.3668 76.4992 14.3529 76.0628 15.2018C75.6335 16.0443 75.0154 16.7039 74.2085 17.1806C73.4081 17.6508 72.4547 17.8859 71.3485 17.8859ZM71.3677 15.5153C71.8692 15.5153 72.289 15.3749 72.6269 15.0941C72.9654 14.8068 73.2193 14.4149 73.3883 13.9186C73.5642 13.4223 73.6519 12.8574 73.6519 12.2239C73.6519 11.5839 73.5642 11.019 73.3883 10.5293C73.2193 10.0395 72.9654 9.65419 72.6269 9.37334C72.289 9.09255 71.8692 8.95212 71.3677 8.95212C70.8603 8.95212 70.4341 9.09255 70.0892 9.37334C69.7508 9.65419 69.4936 10.0395 69.3182 10.5293C69.1487 11.019 69.0642 11.5839 69.0642 12.2239C69.0642 12.8574 69.1487 13.4223 69.3182 13.9186C69.4936 14.4149 69.7508 14.8068 70.0892 15.0941C70.4341 15.3749 70.8603 15.5153 71.3677 15.5153Z" fill="black" fill-opacity="0.6"/>
<path d="M59.8323 22.0001C58.3613 22.0001 57.2096 21.7062 56.3765 21.1184C55.5435 20.5373 55.0361 19.8123 54.8537 18.9438L57.6459 18.5716C57.7304 18.7936 57.8635 18.9993 58.0459 19.1887C58.2282 19.3781 58.472 19.5283 58.7779 19.6393C59.0837 19.7569 59.458 19.8156 59.9007 19.8156C60.5579 19.8156 61.1011 19.6557 61.5305 19.3356C61.9604 19.0222 62.1748 18.4899 62.1748 17.7389V15.7308H62.048C61.9176 16.0312 61.7192 16.3185 61.4524 16.5928C61.1856 16.8671 60.8439 17.0892 60.4274 17.2589C60.0109 17.4287 59.5131 17.5136 58.934 17.5136C58.1143 17.5136 57.3689 17.3243 56.699 16.9455C56.0349 16.5602 55.5012 15.9724 55.0981 15.1823C54.7008 14.392 54.5024 13.3929 54.5024 12.1847C54.5024 10.9374 54.704 9.89909 55.1077 9.06969C55.5178 8.24029 56.0579 7.61989 56.7278 7.20849C57.3983 6.79054 58.1335 6.58154 58.934 6.58154C59.5457 6.58154 60.0568 6.68607 60.4664 6.89502C60.8829 7.09747 61.2214 7.35219 61.4818 7.65911C61.7422 7.96604 61.9374 8.26969 62.0673 8.57013H62.1844V6.71869H65.1616V17.7879C65.1616 18.7152 64.9338 19.4924 64.4788 20.1193C64.0232 20.7462 63.3949 21.2164 62.5945 21.5299C61.7941 21.8434 60.8733 22.0001 59.8323 22.0001ZM59.8906 15.2312C60.6193 15.2312 61.1824 14.9602 61.5796 14.4182C61.9828 13.8762 62.1844 13.1251 62.1844 12.1651C62.1844 11.5252 62.0935 10.9701 61.9112 10.4999C61.7358 10.0231 61.4786 9.65419 61.1401 9.39293C60.8017 9.12517 60.3851 8.99135 59.8906 8.99135C59.396 8.99135 58.9762 9.12845 58.6313 9.40275C58.2929 9.6705 58.0362 10.0427 57.8603 10.5194C57.6849 10.9962 57.5967 11.5447 57.5967 12.1651C57.5967 12.7921 57.6849 13.3374 57.8603 13.801C58.0362 14.2582 58.2929 14.6108 58.6313 14.859C58.9762 15.1071 59.396 15.2312 59.8906 15.2312Z" fill="black" fill-opacity="0.6"/>
<path d="M48.7453 17.8859C47.6455 17.8859 46.6922 17.6508 45.8852 17.1806C45.0848 16.7039 44.4666 16.0443 44.0306 15.2018C43.6011 14.3529 43.3864 13.3668 43.3864 12.2435C43.3864 11.1072 43.6011 10.1179 44.0306 9.27542C44.4666 8.42643 45.0848 7.76686 45.8852 7.29665C46.6922 6.81995 47.6455 6.58154 48.7453 6.58154C49.8515 6.58154 50.8049 6.81995 51.6053 7.29665C52.4123 7.76686 53.0305 8.42643 53.46 9.27542C53.896 10.1179 54.1142 11.1072 54.1142 12.2435C54.1142 13.3668 53.896 14.3529 53.46 15.2018C53.0305 16.0443 52.4123 16.7039 51.6053 17.1806C50.8049 17.6508 49.8515 17.8859 48.7453 17.8859ZM48.7648 15.5153C49.2659 15.5153 49.6856 15.3749 50.024 15.0941C50.3624 14.8068 50.6162 14.4149 50.7854 13.9186C50.9611 13.4223 51.0489 12.8574 51.0489 12.2239C51.0489 11.5839 50.9611 11.019 50.7854 10.5293C50.6162 10.0395 50.3624 9.65419 50.024 9.37334C49.6856 9.09255 49.2659 8.95212 48.7648 8.95212C48.2573 8.95212 47.831 9.09255 47.4861 9.37334C47.1477 9.65419 46.8906 10.0395 46.7149 10.5293C46.5457 11.019 46.4612 11.5839 46.4612 12.2239C46.4612 12.8574 46.5457 13.4223 46.7149 13.9186C46.8906 14.4149 47.1477 14.8068 47.4861 15.0941C47.831 15.3749 48.2573 15.5153 48.7648 15.5153Z" fill="black" fill-opacity="0.6"/>
<path d="M33.6857 17.6701V3.07446H36.7507V15.1232H42.9881V17.6701H33.6857Z" fill="black" fill-opacity="0.6"/>
<path d="M19.9947 21.4634C23.4343 21.3931 26.2 18.5698 26.2 15.0989C26.2 13.4109 25.5323 11.7921 24.3436 10.5985L13.7895 0V6.58771C13.7895 7.68943 14.2253 8.74607 15.0012 9.52514L17.4735 12.0079L17.4803 12.0145L21.6258 16.1775C21.7604 16.3127 21.7604 16.5319 21.6258 16.667C21.4912 16.8023 21.2729 16.8023 21.1383 16.667L19.7094 15.2321H6.49065L5.06171 16.667C4.92708 16.8023 4.7088 16.8023 4.57418 16.667C4.43955 16.5319 4.43955 16.3127 4.57417 16.1775L8.71973 12.0145L8.72647 12.0079L11.1988 9.52514C11.9747 8.74607 12.4105 7.68943 12.4105 6.58771V0L1.85632 10.5985C0.667736 11.7921 0 13.4109 0 15.0989C0 18.5698 2.76571 21.3931 6.20528 21.4634H19.9947Z" fill="black" fill-opacity="0.6"/>
</g>
<defs>
<clipPath id="clip0_2008_1991">
<rect width="131" height="22" fill="white"/>
</clipPath>
</defs>
</svg>
