<svg width="70" height="22" viewBox="0 0 70 22" fill="none" xmlns="http://www.w3.org/2000/svg">
<path d="M22.0126 0.0346973C15.9592 6.11262 15.9707 15.9365 22.0472 22C15.9707 15.9365 6.12565 15.9248 0.0346641 21.9653C6.08797 15.8875 6.07655 6.06353 0 0C6.07655 6.06353 15.9216 6.07524 22.0126 0.0346973Z" fill="black" fill-opacity="0.6"/>
<path d="M68.8718 3.63868H66.7861V0.879883H68.8718V3.63868Z" fill="black" fill-opacity="0.6"/>
<path d="M68.8718 18.6185H66.7861V5.98608H68.8718V18.6185Z" fill="black" fill-opacity="0.6"/>
<path d="M61.1892 5.98608H64.4765V7.72848H61.3832V18.6185H59.2733V7.84948C59.2733 6.61528 59.9039 5.98608 61.1892 5.98608Z" fill="black" fill-opacity="0.6"/>
<path fill-rule="evenodd" clip-rule="evenodd" d="M50.744 11.0924C47.858 11.0924 46.1361 12.496 46.1361 14.9886C46.1361 17.336 47.664 18.8606 50.2104 18.8606C52.2719 18.8606 53.9695 17.9652 54.5273 16.5374H54.6728L54.6971 17.1908C54.7698 18.1346 55.1821 18.6186 56.3462 18.6186H57.5125V17.0698H56.6372V10.1727C56.6372 9.59194 56.613 9.05954 56.2249 8.16414C56.0309 7.70434 55.7641 7.31714 55.4489 6.97834C54.7941 6.30074 53.4845 5.74414 51.8111 5.74414C48.7311 5.74414 46.7909 7.24454 46.6697 9.76134H48.7311C48.8038 8.30934 49.8224 7.41394 51.6898 7.41394C53.6057 7.41394 54.5515 8.30934 54.5515 10.1243V11.0924H50.744ZM48.2945 15.2306V14.4562C48.2945 13.3672 49.2646 12.617 50.938 12.617H54.5515V13.2946C54.5515 15.6178 53.0479 17.1666 50.6955 17.1666C49.2404 17.1666 48.2945 16.489 48.2945 15.2306Z" fill="black" fill-opacity="0.6"/>
<path d="M41.6803 7.72856V16.8762H44.348V18.6186H41.4377C40.2009 18.6186 39.5946 18.0378 39.5946 16.852V7.72856H37.2906V5.98616H39.5946V1.79956H41.6803V5.98616H44.3237V7.72856H41.6803Z" fill="black" fill-opacity="0.6"/>
<path d="M28.1014 14.795H26.0157C26.0157 17.2392 27.9802 18.8606 31.1814 18.8606C34.2614 18.8606 36.2258 17.4086 36.2258 14.9886C36.2258 13.101 35.1102 11.9636 32.9033 11.5764L30.4054 11.1166C29.8961 11.0198 29.6778 10.9471 29.1685 10.7293C28.6592 10.4631 28.3682 9.97914 28.3682 9.30154C28.3682 8.11574 29.314 7.36554 31.0359 7.36554C32.8306 7.36554 33.7521 8.11574 33.8006 9.59194H35.8863C35.862 7.26874 34.0431 5.74414 31.0359 5.74414C28.1257 5.74414 26.2583 7.17194 26.2583 9.51934C26.2583 11.3344 27.3739 12.4476 29.6293 12.859L32.3455 13.3672C33.4611 13.585 34.0189 14.1658 34.0189 15.1096C34.0189 16.4406 32.9518 17.215 31.1814 17.215C29.314 17.215 28.1014 16.2712 28.1014 14.795Z" fill="black" fill-opacity="0.6"/>
</svg>
