<svg width="117" height="117" viewBox="0 0 117 117" fill="none" xmlns="http://www.w3.org/2000/svg">
<path d="M71.1576 12.6924C79.123 14.9011 84.5921 21.6768 85.523 29.4042C88.6215 28.6945 91.9359 28.7229 95.214 29.6318C105.747 32.5526 111.918 43.4596 108.998 53.9927L99.4785 88.3224C96.5577 98.8556 85.6508 105.027 75.1176 102.106C71.8394 101.197 68.9841 99.5138 66.6935 97.3097C61.9161 103.455 53.7386 106.447 45.7729 104.238C37.8071 102.029 32.3373 95.2529 31.4068 87.525C28.3085 88.2346 24.9945 88.2075 21.7165 87.2986C11.1834 84.3778 5.01203 73.4709 7.93278 62.9377L17.452 28.608C20.3728 18.0749 31.2798 11.9035 41.8129 14.8243C45.0907 15.7332 47.9459 17.4158 50.2363 19.6195C55.0138 13.4748 63.1921 10.4836 71.1576 12.6924Z" fill="#FFE01B"/>
<path fill-rule="evenodd" clip-rule="evenodd" d="M57.8903 39.1078C54.7918 38.2486 51.4704 39.1077 49.1771 41.3614L40.9414 49.4551C38.6481 51.7089 37.7314 55.0149 38.5365 58.1279L41.428 69.307C42.2332 72.4199 44.638 74.8668 47.7365 75.726L58.8636 78.8115C61.9621 79.6707 65.2835 78.8115 67.5768 76.5578L75.8125 68.4641C78.1058 66.2103 79.0225 62.9043 78.2173 59.7913L75.3258 48.6122C74.5207 45.4993 72.116 43.0524 69.0175 42.1932L57.8903 39.1078ZM67.4142 47.975L60.4597 46.0466C59.347 45.7381 58.3178 46.7497 58.6079 47.8674C59.503 51.3158 60.4028 54.763 61.295 58.2121C61.5634 59.2498 61.2578 60.3518 60.4934 61.1031C57.9523 63.6003 55.4058 66.0918 52.8626 68.5868C52.0384 69.3954 52.3996 70.7927 53.5124 71.1012L60.4668 73.0296C61.4997 73.316 62.6068 73.0297 63.3713 72.2784L71.6069 64.1847C72.3714 63.4335 72.6769 62.3315 72.4085 61.2938L69.517 50.1147C69.2487 49.0771 68.4471 48.2614 67.4142 47.975Z" fill="#1B1A10"/>
</svg>
