<svg width="87" height="22" viewBox="0 0 87 22" fill="none" xmlns="http://www.w3.org/2000/svg">
<path d="M1.57531 18.2698C3.24014 21.0198 7.24634 21.0869 8.90896 18.3314C9.43534 17.4587 9.73121 16.4677 9.76901 15.4505L9.82207 14.0414C9.82207 14.0414 7.29608 16.3349 6.25474 16.1941C5.9032 16.1468 6.17072 15.4978 6.29785 15.1766C6.78094 13.9666 9.71594 10.99 9.71594 10.99C9.71594 10.99 9.9492 6.77373 10.3637 5.61763C10.5782 5.01923 10.8269 4.74533 11.0547 4.63643C11.2824 4.74643 11.5311 5.01923 11.7456 5.61763C12.1601 6.77373 12.3934 10.99 12.3934 10.99C12.3934 10.99 15.3284 13.96 15.8115 15.1766C15.9386 15.4978 16.2061 16.1468 15.8546 16.1941C14.8121 16.3349 12.2873 14.0414 12.2873 14.0414L12.3403 15.4505C12.3802 16.525 12.7081 17.5695 13.2899 18.4755C14.9592 21.0737 18.8338 21.0055 20.4644 18.3842C21.5277 16.6747 22.0969 14.7066 22.1093 12.6961C22.1546 6.72533 17.3204 1.75443 11.32 1.61473C9.34196 1.56759 7.38746 2.04958 5.66048 3.01039C3.9335 3.9712 2.49731 5.37561 1.50181 7.07708C0.506312 8.77854 -0.0120208 10.7147 0.000907442 12.6835C0.0138358 14.6523 0.557551 16.5814 1.57531 18.2698Z" fill="black" fill-opacity="0.6"/>
<path d="M32.0054 9.60071H34.7535V6.59991H32.0054V3.21191L28.8681 4.15571V6.59991H26.7522V9.60071H28.8681V14.6343C28.8681 17.9013 30.3516 19.1839 34.7535 18.6999V15.8685C32.9538 15.9653 32.0054 15.9411 32.0054 14.6343V9.60071Z" fill="black" fill-opacity="0.6"/>
<path fill-rule="evenodd" clip-rule="evenodd" d="M49.9939 16.2074C48.3402 16.2074 47.0025 15.5298 46.5648 13.9326H55.7335C55.8065 13.5212 55.8551 13.1098 55.8551 12.65C55.8551 9.09263 53.3015 6.26123 49.7021 6.26123C45.8838 6.26123 43.2816 9.04423 43.2816 12.65C43.2816 16.2558 45.8595 19.0388 49.9453 19.0388C52.28 19.0388 54.104 18.095 55.2471 16.4494L52.7178 14.9974C52.1828 15.6992 51.2099 16.2074 49.9939 16.2074ZM52.7178 11.5126H46.5161C46.8809 9.96383 48.024 9.06843 49.7021 9.06843C51.0154 9.06843 52.3287 9.77023 52.7178 11.5126Z" fill="black" fill-opacity="0.6"/>
<path fill-rule="evenodd" clip-rule="evenodd" d="M80.9827 6.60003H77.8454V8.02783C76.9699 6.93883 75.6566 6.26123 73.8812 6.26123C70.6467 6.26123 67.9714 9.04423 67.9714 12.65C67.9714 16.2558 70.6467 19.0388 73.8812 19.0388C75.6566 19.0388 76.9699 18.3612 77.8454 17.2722V18.7H80.9827V6.60003ZM77.8454 12.65C77.8454 14.6828 76.4105 16.0622 74.4649 16.0622C72.5436 16.0622 71.1087 14.6828 71.1087 12.65C71.1087 10.6172 72.5436 9.23783 74.4649 9.23783C76.4105 9.23783 77.8454 10.6172 77.8454 12.65Z" fill="black" fill-opacity="0.6"/>
<path d="M82.8549 16.9576C82.8549 18.095 83.779 19.0146 84.9221 19.0146C86.0651 19.0146 86.9893 18.095 86.9893 16.9576C86.9893 15.8202 86.0651 14.9006 84.9221 14.9006C83.779 14.9006 82.8549 15.8202 82.8549 16.9576Z" fill="black" fill-opacity="0.6"/>
<path d="M64.8421 6.6001H68.2956L63.6747 18.7001H60.0997L55.4788 6.6001H58.9323L61.875 15.0701L64.8421 6.6001Z" fill="black" fill-opacity="0.6"/>
<path d="M39.5633 8.68111C40.1957 7.03551 41.7278 6.35791 43.26 6.35791V9.84271C41.6305 9.64911 39.5633 10.3751 39.5633 12.9161V18.6999H36.426V6.59991H39.5633V8.68111Z" fill="black" fill-opacity="0.6"/>
</svg>
