<svg width="94" height="22" viewBox="0 0 94 22" fill="none" xmlns="http://www.w3.org/2000/svg">
<g clip-path="url(#clip0_2008_1941)">
<mask id="mask0_2008_1941" style="mask-type:luminance" maskUnits="userSpaceOnUse" x="0" y="0" width="94" height="22">
<path d="M94 0H0V22H94V0Z" fill="white"/>
</mask>
<g mask="url(#mask0_2008_1941)">
<path d="M11.1448 0C4.52597 0 0 4.18 0 11.0594C0 17.6275 4.52597 22 11.1448 22C17.7636 22 22.1698 17.6275 22.1698 11.0594C22.1698 4.18 17.7636 0 11.1448 0ZM17.7281 17.5923C17.2967 18.0187 16.8155 18.3923 16.2948 18.7055V9.68L14.2995 8.58V19.58C13.5775 19.7935 12.8341 19.9281 12.0825 19.9815V5.5165L10.0873 4.4165V19.9749C9.37371 19.9165 8.66802 19.7859 7.98113 19.5855V9.24L5.98585 10.34V18.7209C3.46847 17.2326 1.99528 14.5409 1.99528 11.055C1.99528 8.2577 2.85658 5.9422 4.48717 4.3582C6.09005 2.8039 8.39238 1.98 11.1448 1.98C13.8971 1.98 16.1607 2.8006 17.7358 4.3516C19.3332 5.929 20.1745 8.2489 20.1745 11.0616C20.1745 13.75 19.3287 16.005 17.7281 17.5923Z" fill="black" fill-opacity="0.6"/>
<path d="M69.386 6.15991H71.6007L71.5808 16.0599H69.366L69.386 6.15991Z" fill="black" fill-opacity="0.6"/>
<path d="M70.4834 4.2791C70.1242 4.2791 69.8117 4.1537 69.5456 3.9029C69.2929 3.6389 69.1665 3.3287 69.1665 2.9723C69.1665 2.6159 69.2929 2.3123 69.5456 2.0615C69.8117 1.8107 70.1242 1.6853 70.4834 1.6853C70.8425 1.6853 71.1485 1.8107 71.4012 2.0615C71.6673 2.3123 71.8003 2.6159 71.8003 2.9723C71.8003 3.3287 71.6673 3.6389 71.4012 3.9029C71.1485 4.1537 70.8425 4.2791 70.4834 4.2791Z" fill="black" fill-opacity="0.6"/>
<path d="M73.8155 16.06H76.0502V10.8922C76.0502 9.95496 76.2564 9.23556 76.6688 8.73396C77.0811 8.23236 77.6597 7.98816 78.4046 8.00136C78.8436 8.00136 79.2227 8.08716 79.542 8.25876C79.8745 8.43036 80.1272 8.73396 80.3002 9.16956C80.4864 9.59196 80.5795 10.1992 80.5795 10.9912V16.06H82.8142V10.3972C82.8142 8.87916 82.4817 7.75716 81.8166 7.03116C81.1648 6.29196 80.2337 5.92236 79.0232 5.92236C78.2384 5.92236 77.56 6.12036 76.988 6.51636C76.6041 6.77327 76.2802 7.11342 76.0162 7.5368L75.9105 6.15996H73.8155V16.06Z" fill="black" fill-opacity="0.6"/>
<path fill-rule="evenodd" clip-rule="evenodd" d="M86.5344 15.6442C87.2926 16.0798 88.1572 16.2976 89.1283 16.2976C89.8865 16.2976 90.5582 16.192 91.1435 15.9808C91.7421 15.7696 92.2542 15.466 92.6799 15.07C93.1188 14.674 93.478 14.212 93.7573 13.684L91.7022 12.8128C91.4894 13.2352 91.1901 13.585 90.8043 13.8622C90.4186 14.1262 89.9264 14.2582 89.3278 14.2582C88.7824 14.2582 88.2836 14.1394 87.8313 13.9018C87.3924 13.651 87.0399 13.2946 86.7738 12.8326C86.5853 12.4879 86.4671 12.0919 86.4192 11.6446H93.9569C93.9569 10.4566 93.744 9.43356 93.3184 8.57556C92.8927 7.71756 92.3207 7.06416 91.6024 6.61536C90.8974 6.15336 90.0993 5.92236 89.2081 5.92236C88.2238 5.92236 87.3458 6.14676 86.5743 6.59556C85.8161 7.03116 85.2175 7.63836 84.7786 8.41716C84.3396 9.19596 84.1201 10.0936 84.1201 11.11C84.1201 12.1264 84.3329 13.024 84.7586 13.8028C85.1976 14.5816 85.7895 15.1954 86.5344 15.6442ZM91.4995 9.88236C91.465 9.7573 91.4262 9.6385 91.3829 9.52596C91.1834 8.97156 90.8908 8.56236 90.505 8.29836C90.1326 8.02116 89.6737 7.88256 89.1283 7.88256C88.5563 7.88256 88.0641 8.00796 87.6518 8.25876C87.2394 8.50956 86.9268 8.87916 86.714 9.36756C86.6434 9.52534 86.5844 9.69694 86.5372 9.88236H91.4995Z" fill="black" fill-opacity="0.6"/>
<path d="M64.91 2.19995V16.06H67.1447V2.19995H64.91Z" fill="black" fill-opacity="0.6"/>
<path fill-rule="evenodd" clip-rule="evenodd" d="M60.7234 16.06L60.6434 14.582C60.3675 15.0168 60.0284 15.3775 59.626 15.664C59.0275 16.0864 58.3092 16.2976 57.4711 16.2976C56.5666 16.2976 55.7751 16.0864 55.0967 15.664C54.4317 15.2284 53.9062 14.6212 53.5205 13.8424C53.148 13.0636 52.9618 12.1528 52.9618 11.11C52.9618 10.054 53.148 9.14315 53.5205 8.37755C53.9062 7.59875 54.4317 6.99815 55.0967 6.57575C55.7751 6.14015 56.5666 5.92235 57.4711 5.92235C58.3092 5.92235 59.0275 6.14015 59.626 6.57575C60.0189 6.84696 60.3514 7.19162 60.6237 7.60974V2.19995H62.8384V16.06H60.7234ZM60.2845 12.7534C60.5106 12.2782 60.6237 11.7304 60.6237 11.11C60.6237 10.4896 60.5106 9.94175 60.2845 9.46655C60.0717 8.99135 59.7657 8.62175 59.3667 8.35775C58.9809 8.09375 58.5286 7.96175 58.0099 7.96175C57.4778 7.96175 57.0056 8.09375 56.5932 8.35775C56.1808 8.62175 55.855 8.99135 55.6155 9.46655C55.3894 9.94175 55.2697 10.4896 55.2564 11.11C55.2697 11.7304 55.3894 12.2782 55.6155 12.7534C55.855 13.2286 56.1808 13.6048 56.5932 13.882C57.0189 14.146 57.4977 14.278 58.0298 14.278C58.5353 14.278 58.9809 14.146 59.3667 13.882C59.7657 13.6048 60.0717 13.2286 60.2845 12.7534Z" fill="black" fill-opacity="0.6"/>
<path d="M49.2041 2.19995V16.06H51.4388V2.19995H49.2041Z" fill="black" fill-opacity="0.6"/>
<path fill-rule="evenodd" clip-rule="evenodd" d="M42.5986 16.2976C41.601 16.2976 40.7098 16.0798 39.925 15.6442C39.1534 15.1954 38.5482 14.5816 38.1092 13.8028C37.6703 13.024 37.4508 12.1264 37.4508 11.11C37.4508 10.0936 37.6636 9.19596 38.0893 8.41716C38.5283 7.63836 39.1335 7.03116 39.905 6.59556C40.6765 6.14676 41.5611 5.92236 42.5587 5.92236C43.5564 5.92236 44.4409 6.14676 45.2125 6.59556C45.9841 7.03116 46.5826 7.63836 47.0082 8.41716C47.4472 9.19596 47.6667 10.0936 47.6667 11.11C47.6667 12.1264 47.4538 13.024 47.0282 13.8028C46.6025 14.5816 46.0039 15.1954 45.2324 15.6442C44.4609 16.0798 43.583 16.2976 42.5986 16.2976ZM42.5986 14.2582C43.144 14.2582 43.6295 14.1262 44.0552 13.8622C44.4809 13.585 44.8134 13.2154 45.0528 12.7534C45.2923 12.2782 45.412 11.7304 45.412 11.11C45.412 10.4896 45.2857 9.94836 45.033 9.48636C44.7934 9.01116 44.4609 8.64156 44.0352 8.37756C43.6096 8.10036 43.1174 7.96176 42.5587 7.96176C42 7.96176 41.5079 8.09376 41.0822 8.35776C40.6566 8.62176 40.324 8.99136 40.0846 9.46656C39.8451 9.94176 39.7254 10.4896 39.7254 11.11C39.7254 11.7304 39.8451 12.2782 40.0846 12.7534C40.3373 13.2154 40.6765 13.585 41.1022 13.8622C41.5411 14.1262 42.04 14.2582 42.5986 14.2582Z" fill="black" fill-opacity="0.6"/>
<path fill-rule="evenodd" clip-rule="evenodd" d="M28.897 20.0992C29.469 20.218 30.1075 20.2774 30.8125 20.2774C31.8367 20.2774 32.7346 20.0728 33.5061 19.6636C34.2776 19.2676 34.8762 18.6736 35.3019 17.8816C35.7275 17.1028 35.9403 16.1524 35.9403 15.0304V6.15996H33.7056V7.75637C33.4077 7.26466 33.0352 6.86452 32.5883 6.55596C31.9897 6.13356 31.2847 5.92236 30.4733 5.92236C29.5687 5.92236 28.7773 6.13356 28.0989 6.55596C27.4338 6.97836 26.9084 7.56576 26.5226 8.31816C26.1502 9.07056 25.9639 9.96156 25.9639 10.9912C25.9639 11.9548 26.1502 12.8062 26.5226 13.5454C26.9084 14.2714 27.4338 14.839 28.0989 15.2482C28.7773 15.6574 29.5687 15.862 30.4733 15.862C31.2847 15.862 31.9897 15.664 32.5883 15.268C33.0352 14.9691 33.4077 14.5856 33.7056 14.1176V15.0898C33.7056 15.829 33.5793 16.4362 33.3265 16.9114C33.0738 17.3866 32.7213 17.7364 32.269 17.9608C31.8168 18.1984 31.3046 18.3172 30.7327 18.3172C30.2006 18.3172 29.7217 18.2644 29.2961 18.1588C28.8704 18.0532 28.4979 17.9278 28.1787 17.7826C27.8727 17.6506 27.6267 17.5384 27.4404 17.446L26.5825 19.228C26.7953 19.3732 27.0946 19.525 27.4803 19.6834C27.8661 19.8418 28.3383 19.9804 28.897 20.0992ZM32.4087 13.585C32.0362 13.849 31.5973 13.981 31.0918 13.981C30.5597 13.981 30.0875 13.849 29.6752 13.585C29.2628 13.321 28.9369 12.9646 28.6975 12.5158C28.4713 12.0538 28.3583 11.5258 28.3583 10.9318C28.3583 10.3246 28.4713 9.79656 28.6975 9.34776C28.9369 8.88576 29.2561 8.52936 29.6552 8.27856C30.0676 8.01456 30.5398 7.88256 31.0719 7.88256C31.5773 7.88256 32.0229 8.01456 32.4087 8.27856C32.7944 8.52936 33.0937 8.88576 33.3066 9.34776C33.5194 9.79656 33.6258 10.3246 33.6258 10.9318C33.6258 11.5258 33.5194 12.0538 33.3066 12.5158C33.0937 12.9646 32.7944 13.321 32.4087 13.585Z" fill="black" fill-opacity="0.6"/>
</g>
</g>
<defs>
<clipPath id="clip0_2008_1941">
<rect width="94" height="22" fill="white"/>
</clipPath>
</defs>
</svg>
