<svg width="427" height="427" viewBox="0 0 427 427" fill="none" xmlns="http://www.w3.org/2000/svg">
<g clip-path="url(#clip0_173_2229)">
<path d="M213.003 0.000106651C330.823 0.000106651 426.336 95.5127 426.336 213.333C426.336 319.61 348.623 407.73 246.924 423.979C186.991 423.06 150.808 386.899 135.266 353.333C108.951 296.503 122.336 260.667 149.669 252C172.128 244.879 231.891 257.333 265.669 268C267.891 262.889 269.669 250.933 264.336 238.667C259.002 226.4 229.669 207.778 215.003 200.667C217.003 196.667 219.12 185.333 211.669 172.667C198.336 150 144.336 134 101.669 98.6668C71.2817 73.5018 84.1123 44.0033 109.874 26.5431C140.44 9.63085 175.596 0.000186651 213.003 0.000106651Z" fill="#0044EB"/>
</g>
<defs>
<clipPath id="clip0_173_2229">
<rect width="426.667" height="426.667" fill="white"/>
</clipPath>
</defs>
</svg>
