<svg width="270" height="170" viewBox="0 0 270 170" fill="none" xmlns="http://www.w3.org/2000/svg">
<rect width="270" height="170" fill="url(#paint0_radial_2008_2151)"/>
<path d="M162.5 72C171.06 72 178 65.0604 178 56.5C178 47.9396 171.06 41 162.5 41C153.94 41 147 47.9396 147 56.5C147 65.0604 153.94 72 162.5 72Z" fill="#F2F2F2"/>
<path d="M152.833 50.0647C152.833 55.4588 157.206 59.8316 162.6 59.8316C167.994 59.8316 172.367 55.4588 172.367 50.0647" stroke="#8C8C8C" stroke-width="3.85422" stroke-miterlimit="10"/>
<path d="M173.007 67.8923C170.148 65.5437 166.489 64.1338 162.501 64.1338C158.512 64.1338 154.852 65.544 151.994 67.893C151.994 67.893 155.746 71.9999 162.501 71.9999C169.255 71.9999 173.007 67.8923 173.007 67.8923Z" fill="#2F3135"/>
<circle cx="152" cy="68" r="5" fill="#28C34A"/>
<path d="M198.427 47.3572L196.928 53.1256C196.885 53.2926 196.787 53.4406 196.651 53.5462C196.514 53.6519 196.346 53.7094 196.174 53.7097H187.826C187.654 53.7094 187.486 53.6519 187.349 53.5462C187.213 53.4406 187.115 53.2926 187.072 53.1256L185.573 47.3572C185.537 47.2183 185.539 47.0721 185.581 46.9346C185.622 46.7972 185.701 46.6738 185.808 46.5781C185.915 46.4824 186.046 46.4181 186.187 46.3923C186.328 46.3665 186.474 46.3802 186.608 46.4318L189.091 47.3878C189.116 47.3975 189.143 47.399 189.169 47.3919C189.195 47.3848 189.218 47.3696 189.235 47.3484L191.385 44.5922C191.458 44.4982 191.551 44.4222 191.658 44.3698C191.764 44.3175 191.881 44.2903 192 44.2903C192.119 44.2903 192.236 44.3175 192.342 44.3698C192.449 44.4222 192.542 44.4982 192.615 44.5922L194.765 47.3484C194.782 47.3696 194.805 47.3848 194.831 47.3919C194.857 47.399 194.884 47.3975 194.909 47.3878L197.392 46.4318C197.526 46.3825 197.671 46.3705 197.811 46.3971C197.951 46.4238 198.081 46.4882 198.188 46.5833C198.294 46.6784 198.373 46.8007 198.415 46.9371C198.457 47.0734 198.461 47.2186 198.427 47.3572Z" fill="url(#paint1_linear_2008_2151)"/>
<rect x="8" y="40" width="22.4889" height="22.4889" rx="11.2444" fill="url(#paint2_linear_2008_2151)"/>
<path d="M13.5629 45.6174C13.1138 47.3675 13.5862 50.9094 19.0687 51.0767C19.0455 48.7768 17.9118 44.4652 13.5629 45.6174Z" fill="url(#paint3_linear_2008_2151)"/>
<path d="M24.9258 45.6174C25.375 47.3675 24.9026 50.9094 19.4201 51.0767C19.4433 48.7768 20.577 44.4652 24.9258 45.6174Z" fill="url(#paint4_linear_2008_2151)"/>
<path d="M13.5628 56.8711C13.1137 55.121 13.5861 51.5791 19.0686 51.4118C19.0453 53.7117 17.9117 58.0234 13.5628 56.8711Z" fill="url(#paint5_linear_2008_2151)"/>
<path d="M24.9258 56.8711C25.375 55.121 24.9026 51.5791 19.4201 51.4118C19.4433 53.7117 20.577 58.0234 24.9258 56.8711Z" fill="url(#paint6_linear_2008_2151)"/>
<rect x="35.2593" y="45.4519" width="53.837" height="4.77037" rx="1.36296" fill="black" fill-opacity="0.1"/>
<rect x="35.2593" y="52.2666" width="29.3037" height="4.77037" rx="1.36296" fill="black" fill-opacity="0.2"/>
<rect x="66.6073" y="52.2666" width="12.2667" height="4.77037" rx="1.36296" fill="black" fill-opacity="0.05"/>
<rect x="53.3784" y="11.5044" width="33.4825" height="4.12092" rx="1.03023" fill="black" fill-opacity="0.1"/>
<rect x="88.9213" y="11.5044" width="20.0895" height="4.12092" rx="1.03023" fill="#CCCCCC"/>
<rect x="161.552" y="9.44385" width="100.447" height="8.24184" rx="1.03023" fill="black" fill-opacity="0.05"/>
<rect x="163.613" y="11.5044" width="4.12092" height="4.12092" rx="1.03023" fill="black" fill-opacity="0.2"/>
<rect x="169.279" y="11.5044" width="53.0568" height="4.12092" rx="1.03023" fill="black" fill-opacity="0.1"/>
<g filter="url(#filter0_d_2008_2151)">
<rect x="35.8644" y="6.86816" width="13.393" height="13.393" rx="6.69649" fill="white" shape-rendering="crispEdges"/>
<path d="M44.1317 9.40991C45.8088 10.0444 47.0016 11.6649 47.0018 13.5642C47.0018 16.0168 45.013 18.0056 42.5604 18.0056C42.4097 18.0056 42.2609 17.9968 42.1141 17.9822L46.2537 12.698C46.2779 12.6709 46.2908 12.6359 46.2908 12.5945C46.2908 12.5115 46.2341 12.4472 46.16 12.447H43.2791L44.1317 9.40991ZM42.5604 9.12378C42.7629 9.12378 42.9627 9.13756 43.158 9.16382L39.0457 14.2019C39.0215 14.2291 39.0086 14.2658 39.0086 14.3074C39.0087 14.3887 39.0658 14.4529 39.1385 14.4529H41.8231L41.0692 17.7478C39.3504 17.1349 38.1199 15.4934 38.1199 13.5642C38.1202 11.1119 40.1081 9.124 42.5604 9.12378Z" fill="url(#paint7_linear_2008_2151)"/>
</g>
<circle cx="11.0907" cy="14.067" r="2.96191" fill="#FF5E5D" stroke="#E14942" stroke-width="0.257557"/>
<circle cx="19.8476" cy="14.067" r="2.96191" fill="#FFBC4F" stroke="#E1A325" stroke-width="0.257557"/>
<circle cx="28.6046" cy="14.067" r="2.96191" fill="#22CB58" stroke="#3EAF3F" stroke-width="0.257557"/>
<g style="mix-blend-mode:plus-darker">
<path d="M0 27.5H270" stroke="#EFEFEF"/>
</g>
<path d="M17.5091 119.018C22.7609 119.018 27.0183 114.761 27.0183 109.509C27.0183 104.257 22.7609 100 17.5091 100C12.2574 100 8 104.257 8 109.509C8 114.761 12.2574 119.018 17.5091 119.018Z" fill="#E3DEFF"/>
<path d="M23.9546 116.498C22.2009 115.058 19.956 114.193 17.5092 114.193C15.062 114.193 12.817 115.058 11.0632 116.499C11.0632 116.499 13.3653 119.018 17.5092 119.018C21.653 119.018 23.9546 116.498 23.9546 116.498Z" fill="#040072"/>
<path d="M14.1541 112.168V110.205C14.1541 108.36 15.6636 106.85 17.5089 106.85C19.3539 106.85 20.8635 108.36 20.8635 110.205V112.168" stroke="#7579C6" stroke-width="2.36454" stroke-miterlimit="10"/>
<path d="M29.7703 119.272C35.0921 119.272 39.4063 114.958 39.4063 109.636C39.4063 104.314 35.0921 100 29.7703 100C24.4484 100 20.1342 104.314 20.1342 109.636C20.1342 114.958 24.4484 119.272 29.7703 119.272Z" fill="#FCFFE3"/>
<path d="M36.3016 116.719C34.5245 115.259 32.2497 114.382 29.7702 114.382C27.2904 114.382 25.0154 115.259 23.2382 116.719C23.2382 116.719 25.571 119.272 29.7702 119.272C33.9693 119.272 36.3016 116.719 36.3016 116.719Z" fill="#5B3B00"/>
<path d="M33.1693 106.386V108.375C33.1693 110.245 31.6396 111.775 29.7697 111.775C29.6529 111.775 29.5373 111.769 29.4234 111.757C27.1554 111.525 26.0595 108.823 27.361 106.951L29.2595 104.22" stroke="#EBC268" stroke-width="2.92856" stroke-miterlimit="10"/>
<rect x="46" y="104" width="36.884" height="6.00437" rx="1.71553" fill="#252525" fill-opacity="0.28"/>
<rect x="45.9999" y="111.733" width="45.5286" height="4.03418" rx="1.15262" fill="#252525" fill-opacity="0.12"/>
<rect x="185" y="58" width="40.6349" height="6.61498" rx="1.88999" fill="#252525" fill-opacity="0.28"/>
<rect x="185" y="66.5198" width="65" height="4.44444" rx="1.26984" fill="#252525" fill-opacity="0.12"/>
<rect x="8" y="130.678" width="187.011" height="12.8481" rx="2.14134" fill="#252525" fill-opacity="0.04"/>
<rect x="8.71378" y="131.392" width="185.583" height="11.4205" rx="1.42756" stroke="#252525" stroke-opacity="0.08" stroke-width="1.42756"/>
<rect x="10.8962" y="134.961" width="86.579" height="4.28269" rx="0.818389" fill="#252525" fill-opacity="0.28"/>
<rect x="10.9303" y="134.995" width="86.5108" height="4.21449" rx="0.78429" stroke="#252525" stroke-opacity="0.08" stroke-width="0.0681991"/>
<rect x="99.8503" y="134.961" width="32.9" height="4.28269" rx="0.818389" fill="#252525" fill-opacity="0.09"/>
<rect x="99.8844" y="134.995" width="32.8318" height="4.21449" rx="0.78429" stroke="#252525" stroke-opacity="0.08" stroke-width="0.0681991"/>
<g opacity="0.5">
<rect x="8" y="149.95" width="202" height="12.8481" rx="2.14134" fill="#252525" fill-opacity="0.04"/>
<rect x="8.71378" y="150.664" width="200.572" height="11.4205" rx="1.42756" stroke="#252525" stroke-opacity="0.08" stroke-width="1.42756"/>
<rect x="11.1284" y="154.233" width="93.5185" height="4.28269" rx="0.818389" fill="#252525" fill-opacity="0.28"/>
<rect x="11.1625" y="154.267" width="93.4503" height="4.21449" rx="0.78429" stroke="#252525" stroke-opacity="0.08" stroke-width="0.0681991"/>
<rect x="107.212" y="154.233" width="35.537" height="4.28269" rx="0.818389" fill="#252525" fill-opacity="0.09"/>
<rect x="107.247" y="154.267" width="35.4688" height="4.21449" rx="0.78429" stroke="#252525" stroke-opacity="0.08" stroke-width="0.0681991"/>
</g>
<line x1="20.5" y1="69" x2="20.5" y2="93" stroke="#E5E5E5"/>
<defs>
<filter id="filter0_d_2008_2151" x="34.7789" y="5.78263" width="15.5641" height="15.5641" filterUnits="userSpaceOnUse" color-interpolation-filters="sRGB">
<feFlood flood-opacity="0" result="BackgroundImageFix"/>
<feColorMatrix in="SourceAlpha" type="matrix" values="0 0 0 0 0 0 0 0 0 0 0 0 0 0 0 0 0 0 127 0" result="hardAlpha"/>
<feOffset/>
<feGaussianBlur stdDeviation="0.542768"/>
<feComposite in2="hardAlpha" operator="out"/>
<feColorMatrix type="matrix" values="0 0 0 0 0 0 0 0 0 0 0 0 0 0 0 0 0 0 0.25 0"/>
<feBlend mode="normal" in2="BackgroundImageFix" result="effect1_dropShadow_2008_2151"/>
<feBlend mode="normal" in="SourceGraphic" in2="effect1_dropShadow_2008_2151" result="shape"/>
</filter>
<radialGradient id="paint0_radial_2008_2151" cx="0" cy="0" r="1" gradientUnits="userSpaceOnUse" gradientTransform="translate(148 52) rotate(117.366) scale(112.038 177.943)">
<stop stop-color="#CE7528" stop-opacity="0.21"/>
<stop offset="1" stop-color="white" stop-opacity="0"/>
</radialGradient>
<linearGradient id="paint1_linear_2008_2151" x1="185.547" y1="49" x2="198.457" y2="49" gradientUnits="userSpaceOnUse">
<stop stop-color="#FFDE00"/>
<stop offset="1" stop-color="#FD5900"/>
</linearGradient>
<linearGradient id="paint2_linear_2008_2151" x1="19.2444" y1="40" x2="19.2444" y2="62.4889" gradientUnits="userSpaceOnUse">
<stop stop-color="#ECF3FF"/>
<stop offset="0.332182" stop-color="#E6EDF8"/>
<stop offset="1" stop-color="#DBE2EB"/>
</linearGradient>
<linearGradient id="paint3_linear_2008_2151" x1="16.2512" y1="45.4253" x2="16.2512" y2="51.0767" gradientUnits="userSpaceOnUse">
<stop stop-color="#9DAED7"/>
<stop offset="1" stop-color="#262B38"/>
</linearGradient>
<linearGradient id="paint4_linear_2008_2151" x1="22.2376" y1="45.4253" x2="22.2376" y2="51.0767" gradientUnits="userSpaceOnUse">
<stop stop-color="#9DAED7"/>
<stop offset="1" stop-color="#262B38"/>
</linearGradient>
<linearGradient id="paint5_linear_2008_2151" x1="16.2511" y1="57.0632" x2="16.2511" y2="51.4118" gradientUnits="userSpaceOnUse">
<stop stop-color="#9DAED7"/>
<stop offset="1" stop-color="#262B38"/>
</linearGradient>
<linearGradient id="paint6_linear_2008_2151" x1="22.2376" y1="57.0632" x2="22.2376" y2="51.4118" gradientUnits="userSpaceOnUse">
<stop stop-color="#9DAED7"/>
<stop offset="1" stop-color="#262B38"/>
</linearGradient>
<linearGradient id="paint7_linear_2008_2151" x1="46.1134" y1="8.23561" x2="38.564" y2="19.0416" gradientUnits="userSpaceOnUse">
<stop stop-color="#DDD24C"/>
<stop offset="0.25" stop-color="#EE704A"/>
<stop offset="0.5" stop-color="#F53A8B"/>
<stop offset="0.75" stop-color="#7B40E4"/>
<stop offset="1" stop-color="#3D9BFC"/>
</linearGradient>
</defs>
</svg>
