<svg width="112" height="112" viewBox="0 0 112 112" fill="none" xmlns="http://www.w3.org/2000/svg">
<rect width="111.546" height="111.546" rx="55.7732" fill="white"/>
<path d="M68.2879 22.6726C81.6505 27.7274 91.1524 40.6395 91.1527 55.7725C91.1527 75.312 75.3121 91.1525 55.7726 91.1525C54.5721 91.1525 53.3857 91.091 52.2159 90.9742L85.1957 48.8701C85.3887 48.6539 85.4906 48.3742 85.4907 48.0436C85.4907 47.3817 85.0361 46.8721 84.445 46.8721H61.494L68.2879 22.6726ZM55.7726 20.3936C57.3894 20.3936 58.9812 20.5041 60.5404 20.7141L27.7658 60.8492C27.5726 61.0655 27.4698 61.3578 27.4697 61.6886C27.4697 62.3376 27.9242 62.8471 28.5037 62.8473H49.8984L43.8879 89.1032C30.1953 84.2201 20.3937 71.1421 20.3937 55.7725C20.394 36.2334 36.2335 20.3938 55.7726 20.3936Z" fill="url(#paint0_linear_2008_2414)"/>
<defs>
<linearGradient id="paint0_linear_2008_2414" x1="84.0768" y1="13.3177" x2="3.08481" y2="157.126" gradientUnits="userSpaceOnUse">
<stop stop-color="#DDD24C"/>
<stop offset="0.25" stop-color="#EE704A"/>
<stop offset="0.5" stop-color="#F53A8B"/>
<stop offset="0.75" stop-color="#7B40E4"/>
<stop offset="1" stop-color="#3D9BFC"/>
</linearGradient>
</defs>
</svg>
