<svg width="142" height="44" viewBox="0 0 142 44" fill="none" xmlns="http://www.w3.org/2000/svg">
<g filter="url(#filter0_d_2007_1382)">
<path d="M0 5.00719C0 2.2418 2.24179 0 5.00718 0H136.472C139.237 0 141.479 2.24179 141.479 5.00718V33.5327C141.479 36.298 139.237 38.5398 136.472 38.5398H5.00718C2.24179 38.5398 0 36.2981 0 33.5327V5.00719Z" fill="white" shape-rendering="crispEdges"/>
<rect x="10.0144" y="7.51074" width="23.5183" height="23.5183" rx="1.49804" fill="url(#paint0_linear_2007_1382)"/>
<path d="M22.2727 16.7057L24.8782 10.6432L25.7786 11.0299L23.1467 17.15L27.925 12.3893L28.6165 13.0836L23.9377 17.7448L29.9846 15.2496L30.3577 16.1549L23.9983 18.7799H30.6877V19.7594H23.9963L30.3577 22.3844L29.9846 23.2897L23.9377 20.7946L28.6165 25.4557L27.925 26.15L23.1467 21.3873L25.7786 27.5094L24.8782 27.8961L22.2727 21.8336V28.3053H21.2932V22.068L18.6848 27.903L17.7913 27.5035L20.5002 21.4401L15.7561 26.151L15.0657 25.4557L19.8098 20.7457L13.6995 23.2897L13.3225 22.3854L19.6311 19.7594H12.8596V18.7799H19.6292L13.3225 16.1549L13.6995 15.2506L19.8108 17.7946L15.0657 13.0846L15.7561 12.3893L20.5012 17.1002L17.7913 11.0367L18.6848 10.6373L21.2932 16.4713V10.234H22.2727V16.7057Z" fill="url(#paint1_radial_2007_1382)"/>
<rect x="39.7916" y="9.98413" width="86.6659" height="7.42851" rx="1.49804" fill="url(#paint2_linear_2007_1382)"/>
<rect x="39.7916" y="21.1272" width="43.333" height="7.42851" rx="1.41953" fill="#FEC4FF"/>
</g>
<defs>
<filter id="filter0_d_2007_1382" x="0" y="0" width="141.479" height="43.547" filterUnits="userSpaceOnUse" color-interpolation-filters="sRGB">
<feFlood flood-opacity="0" result="BackgroundImageFix"/>
<feColorMatrix in="SourceAlpha" type="matrix" values="0 0 0 0 0 0 0 0 0 0 0 0 0 0 0 0 0 0 127 0" result="hardAlpha"/>
<feOffset dy="5.00718"/>
<feComposite in2="hardAlpha" operator="out"/>
<feColorMatrix type="matrix" values="0 0 0 0 0.971154 0 0 0 0 0.252126 0 0 0 0 0.875284 0 0 0 0.38 0"/>
<feBlend mode="normal" in2="BackgroundImageFix" result="effect1_dropShadow_2007_1382"/>
<feBlend mode="normal" in="SourceGraphic" in2="effect1_dropShadow_2007_1382" result="shape"/>
</filter>
<linearGradient id="paint0_linear_2007_1382" x1="21.7736" y1="7.51074" x2="21.7736" y2="31.029" gradientUnits="userSpaceOnUse">
<stop stop-color="#E8A8FF"/>
<stop offset="1" stop-color="#F8E5FF"/>
</linearGradient>
<radialGradient id="paint1_radial_2007_1382" cx="0" cy="0" r="1" gradientUnits="userSpaceOnUse" gradientTransform="translate(21.7737 19.2697) rotate(90) scale(9.03564 8.91406)">
<stop stop-color="#A081FF"/>
<stop offset="1" stop-color="#2E02B3"/>
</radialGradient>
<linearGradient id="paint2_linear_2007_1382" x1="126.458" y1="13.6984" x2="39.7916" y2="13.6984" gradientUnits="userSpaceOnUse">
<stop stop-color="#E8A8FF"/>
<stop offset="1" stop-color="#F8E5FF"/>
</linearGradient>
</defs>
</svg>
