<svg width="82" height="82" viewBox="0 0 82 82" fill="none" xmlns="http://www.w3.org/2000/svg">
<rect x="1.66739" y="8.56448" width="72.8749" height="72.8749" rx="8.40865" fill="white" stroke="#EDEDED" stroke-width="1.12115"/>
<path d="M46.8593 22C54.4002 22 60.5133 27.8869 60.5133 35.1485C60.5132 38.9406 58.8453 42.357 56.1782 44.7566C58.8453 47.1563 60.5132 50.5726 60.5133 54.3648C60.5133 61.6264 54.4002 67.5133 46.8593 67.5133C43.3619 67.5133 40.1724 66.2461 37.7566 64.1638C35.3409 66.2461 32.1514 67.5133 28.654 67.5133C21.1131 67.5133 15 61.6264 15 54.3648C15 50.7936 16.4789 47.5551 18.8787 45.1857C16.479 42.7251 15 39.3625 15 35.654C15 28.1131 21.1131 22 28.654 22C32.1156 22 35.2759 23.2886 37.6826 25.4117C40.1068 23.2917 43.3265 22 46.8593 22Z" fill="#FA7933"/>
<path d="M36.6642 50.3914C36.6642 47.2201 40.5526 45.693 42.7106 48.017L48.1552 53.8801L46.1093 55.7802L40.6647 49.9164C40.2331 49.4519 39.4557 49.7572 39.4557 50.3914V59.0173H36.6642V50.3914ZM32.7285 43.6642C35.8502 43.6642 37.3789 47.4323 35.2092 49.6084L35.1029 49.7106L29.2398 55.1552L27.3397 53.1093L33.2035 47.6647L33.2818 47.5802C33.6287 47.1391 33.323 46.4557 32.7285 46.4557H24.1025L24.1025 43.6642H32.7285ZM48.7802 37.0106L42.9164 42.4552C42.4519 42.8868 42.7572 43.6642 43.3914 43.6642H52.0173V46.4557H43.3914C40.2201 46.4557 38.693 42.5672 41.017 40.4093L46.8801 34.9647L48.7802 37.0106ZM35.4552 40.2035L35.5397 40.2818C35.9808 40.6287 36.6642 40.323 36.6642 39.7285V31.1025L39.4557 31.1025V39.7285C39.4557 42.8502 35.6876 44.3789 33.5115 42.2092L33.4093 42.1029L27.9647 36.2398L30.0106 34.3397L35.4552 40.2035Z" fill="white"/>
</svg>
