<svg width="142" height="44" viewBox="0 0 142 44" fill="none" xmlns="http://www.w3.org/2000/svg">
<g filter="url(#filter0_d_2008_2470)">
<path d="M0 5.00718C0 2.24179 2.24179 0 5.00718 0H136.738C139.503 0 141.745 2.24179 141.745 5.00718V33.7985C141.745 36.5638 139.503 38.8056 136.738 38.8056H5.00718C2.24179 38.8056 0 36.5638 0 33.7985V5.00718Z" fill="white" shape-rendering="crispEdges"/>
<rect x="10.0143" y="7.51074" width="23.7843" height="23.7841" rx="2.50359" fill="url(#paint0_linear_2008_2470)"/>
<ellipse cx="26.0258" cy="23.0109" rx="3.3361" ry="3.33612" transform="rotate(90 26.0258 23.0109)" fill="url(#paint1_linear_2008_2470)"/>
<ellipse cx="21.6658" cy="15.7946" rx="3.3361" ry="3.33612" transform="rotate(90 21.6658 15.7946)" fill="url(#paint2_linear_2008_2470)"/>
<ellipse cx="17.7867" cy="23.0109" rx="3.3361" ry="3.33612" transform="rotate(90 17.7867 23.0109)" fill="url(#paint3_linear_2008_2470)"/>
<rect x="40.0574" y="10.1172" width="86.6659" height="7.42851" rx="2.50359" fill="url(#paint4_linear_2008_2470)"/>
<rect x="40.0575" y="21.2603" width="43.333" height="7.42851" rx="1.41953" fill="#B8E9DF"/>
</g>
<defs>
<filter id="filter0_d_2008_2470" x="0" y="0" width="141.745" height="43.8128" filterUnits="userSpaceOnUse" color-interpolation-filters="sRGB">
<feFlood flood-opacity="0" result="BackgroundImageFix"/>
<feColorMatrix in="SourceAlpha" type="matrix" values="0 0 0 0 0 0 0 0 0 0 0 0 0 0 0 0 0 0 127 0" result="hardAlpha"/>
<feOffset dy="5.00718"/>
<feComposite in2="hardAlpha" operator="out"/>
<feColorMatrix type="matrix" values="0 0 0 0 0.252126 0 0 0 0 0.971154 0 0 0 0 0.851316 0 0 0 0.38 0"/>
<feBlend mode="normal" in2="BackgroundImageFix" result="effect1_dropShadow_2008_2470"/>
<feBlend mode="normal" in="SourceGraphic" in2="effect1_dropShadow_2008_2470" result="shape"/>
</filter>
<linearGradient id="paint0_linear_2008_2470" x1="21.9065" y1="7.51074" x2="21.9065" y2="31.2948" gradientUnits="userSpaceOnUse">
<stop stop-color="#DAFEF7"/>
<stop offset="1" stop-color="#DBF5F0"/>
</linearGradient>
<linearGradient id="paint1_linear_2008_2470" x1="26.0258" y1="19.6748" x2="26.0258" y2="26.347" gradientUnits="userSpaceOnUse">
<stop stop-color="#34A9BE"/>
<stop offset="1" stop-color="#37BEB0"/>
</linearGradient>
<linearGradient id="paint2_linear_2008_2470" x1="21.6658" y1="12.4585" x2="21.6658" y2="19.1307" gradientUnits="userSpaceOnUse">
<stop stop-color="#34A9BE"/>
<stop offset="1" stop-color="#37BEB0"/>
</linearGradient>
<linearGradient id="paint3_linear_2008_2470" x1="17.7867" y1="19.6748" x2="17.7867" y2="26.347" gradientUnits="userSpaceOnUse">
<stop stop-color="#34A9BE"/>
<stop offset="1" stop-color="#37BEB0"/>
</linearGradient>
<linearGradient id="paint4_linear_2008_2470" x1="126.723" y1="13.8315" x2="40.0574" y2="13.8315" gradientUnits="userSpaceOnUse">
<stop stop-color="#DAFEF7"/>
<stop offset="1" stop-color="#DBF5F0"/>
</linearGradient>
</defs>
</svg>
