<svg width="82" height="82" viewBox="0 0 82 82" fill="none" xmlns="http://www.w3.org/2000/svg">
<rect x="0.561642" y="8.42443" width="72.7201" height="73.0134" rx="8.42463" fill="#EFFFEA" stroke="#C4FFB4" stroke-width="1.12328"/>
<path d="M36.3625 19.0957C36.3625 19.0957 44.4959 21.7923 46.0656 25.622C47.5475 24.8176 49.2442 24.361 51.0471 24.3609C56.84 24.3609 61.5363 29.0759 61.5363 34.8919V53.8473C61.5363 59.6633 56.84 64.3782 51.0471 64.3782C49.2441 64.3782 47.5475 63.9211 46.0656 63.1166C44.496 66.9466 40.7434 69.6435 36.3625 69.6435C31.9815 69.6435 28.2284 66.9467 26.6588 63.1166C25.177 63.921 23.4807 64.3782 21.6779 64.3782C15.8849 64.3782 11.1886 59.6633 11.1886 53.8473V34.8919C11.1886 29.0759 15.8849 24.3609 21.6779 24.3609C23.4806 24.361 25.177 24.8178 26.6588 25.622C28.2285 21.7922 36.3625 19.0957 36.3625 19.0957Z" fill="#039A6A"/>
<path d="M46.0586 35.1275C50.8836 35.1275 53.2998 41.3781 49.888 45.0336L42.4564 52.9964C42.1152 53.3618 41.5319 53.1029 41.5318 52.5861V45.5729L42.3908 44.6525C43.073 43.9214 42.5898 42.6712 41.6249 42.6712H30.6999L37.1063 35.8077C37.5125 35.3724 38.0644 35.1275 38.6389 35.1275H46.0586ZM29.7754 35.2476C30.1165 34.8822 30.6999 35.1414 30.6999 35.6584V42.6712L29.841 43.5916C29.1588 44.3227 29.6423 45.5729 30.6073 45.5729H41.5318L35.1255 52.4364C34.7193 52.8717 34.1678 53.1165 33.5933 53.1166H26.1732C21.3481 53.1165 18.9319 46.866 22.3437 43.2104L29.7754 35.2476Z" fill="white"/>
<g clip-path="url(#clip0_2008_3131)">
<path d="M69.346 22.4212C75.5374 22.4212 80.5566 17.402 80.5566 11.2106C80.5566 5.01915 75.5374 0 69.346 0C63.1545 0 58.1354 5.01915 58.1354 11.2106C58.1354 17.402 63.1545 22.4212 69.346 22.4212Z" fill="#48B02C"/>
<path fill-rule="evenodd" clip-rule="evenodd" d="M74.9313 9.11961C74.9218 9.12985 74.9121 9.14009 74.9021 9.15006L68.4534 15.5987C68.3155 15.7366 68.1493 15.8309 67.9727 15.8814C67.5887 15.9961 67.1519 15.904 66.8526 15.6048L63.0443 11.7965C62.6117 11.3638 62.6078 10.6477 63.0443 10.2111C63.4809 9.77459 64.1931 9.7745 64.6297 10.211L67.6494 13.2307L74.0624 6.81773C74.4989 6.38114 75.2136 6.38361 75.6477 6.81773C76.0818 7.25185 76.0819 7.96898 75.6478 8.4031L74.9313 9.11961Z" fill="white"/>
</g>
<defs>
<clipPath id="clip0_2008_3131">
<rect width="22.4212" height="22.4212" fill="white" transform="translate(58.1354)"/>
</clipPath>
</defs>
</svg>
