<svg width="141" height="43" viewBox="0 0 141 43" fill="none" xmlns="http://www.w3.org/2000/svg">
<g filter="url(#filter0_d_2007_1375)">
<path d="M0 5.00718C0 2.24179 2.24179 0 5.00718 0H135.486C138.251 0 140.493 2.24179 140.493 5.00718V32.5467C140.493 35.312 138.251 37.5538 135.486 37.5538H5.00717C2.24178 37.5538 0 35.312 0 32.5467V5.00718Z" fill="white" shape-rendering="crispEdges"/>
<rect x="10.0144" y="7.51074" width="22.5323" height="22.5323" rx="1.43525" fill="url(#paint0_linear_2007_1375)"/>
<path d="M15.2991 12.2117H27.21V25.4048V25.4048C20.6318 25.4048 15.2991 20.0721 15.2991 13.4938V12.2117Z" fill="url(#paint1_linear_2007_1375)"/>
<rect x="38.8057" y="9.49109" width="86.6659" height="7.42851" rx="1.43525" fill="url(#paint2_linear_2007_1375)"/>
<rect x="38.8057" y="20.6342" width="43.333" height="7.42851" rx="1.41953" fill="#FFC7C7"/>
</g>
<defs>
<filter id="filter0_d_2007_1375" x="0" y="0" width="140.493" height="42.561" filterUnits="userSpaceOnUse" color-interpolation-filters="sRGB">
<feFlood flood-opacity="0" result="BackgroundImageFix"/>
<feColorMatrix in="SourceAlpha" type="matrix" values="0 0 0 0 0 0 0 0 0 0 0 0 0 0 0 0 0 0 127 0" result="hardAlpha"/>
<feOffset dy="5.00718"/>
<feComposite in2="hardAlpha" operator="out"/>
<feColorMatrix type="matrix" values="0 0 0 0 0.971154 0 0 0 0 0.252126 0 0 0 0 0.407916 0 0 0 0.38 0"/>
<feBlend mode="normal" in2="BackgroundImageFix" result="effect1_dropShadow_2007_1375"/>
<feBlend mode="normal" in="SourceGraphic" in2="effect1_dropShadow_2007_1375" result="shape"/>
</filter>
<linearGradient id="paint0_linear_2007_1375" x1="21.2806" y1="7.51074" x2="21.2806" y2="30.043" gradientUnits="userSpaceOnUse">
<stop stop-color="#FFF3F3"/>
<stop offset="1" stop-color="#FFD5D5"/>
</linearGradient>
<linearGradient id="paint1_linear_2007_1375" x1="25.0637" y1="12.2117" x2="17.3395" y2="24.5344" gradientUnits="userSpaceOnUse">
<stop stop-color="#FF98B7"/>
<stop offset="1" stop-color="#944E63"/>
</linearGradient>
<linearGradient id="paint2_linear_2007_1375" x1="125.472" y1="13.2054" x2="38.8057" y2="13.2054" gradientUnits="userSpaceOnUse">
<stop stop-color="#FFD5D5"/>
<stop offset="1" stop-color="#FFEBEB"/>
</linearGradient>
</defs>
</svg>
