<svg width="75" height="31" viewBox="0 0 75 31" fill="none" xmlns="http://www.w3.org/2000/svg">
<rect width="74.5554" height="30.4589" fill="white"/>
<path d="M30.3134 17.7866C30.3134 18.5293 30.5392 19.133 30.9901 19.5972C31.4411 20.0479 31.9917 20.2729 32.6415 20.2729C33.4107 20.2729 34.0341 20.0013 34.5116 19.4575C35.0024 18.9004 35.2479 18.2106 35.2479 17.3882V11.9565H37.8348V22.5015H35.2479V21.3081C34.4255 22.2234 33.3841 22.6812 32.1239 22.6812C30.9169 22.6812 29.8826 22.2961 29.0204 21.5269C28.1582 20.7575 27.7264 19.7358 27.7264 18.4624V11.9565H30.3134V17.7866ZM18.1425 13.1304C18.9383 12.2417 19.9861 11.7901 21.286 11.7769H21.3456C22.7914 11.7769 24.0119 12.3012 25.0067 13.3491C26.0148 14.397 26.5194 15.6903 26.5194 17.229C26.5194 18.7279 26.0211 20.0077 25.0262 21.0688C24.0446 22.13 22.7982 22.6606 21.286 22.6606C20.0126 22.6606 18.9649 22.2298 18.1425 21.3677V22.5015H15.5555V8.57373H18.1425V13.1304ZM58.9999 22.5015H56.4139V21.3677C55.5783 22.2299 54.5233 22.6606 53.2499 22.6606C51.8173 22.6606 50.5834 22.1238 49.5487 21.0493C48.5274 19.9749 48.0165 18.7013 48.0165 17.229C48.0165 15.7037 48.5274 14.4103 49.5487 13.3491C50.5701 12.3012 51.804 11.7769 53.2499 11.7769C54.51 11.7769 55.565 12.2212 56.4139 13.1099V8.57373H58.9999V22.5015ZM42.2772 22.5015H39.6903V11.9565H42.2772V22.5015ZM46.6571 22.5015H44.0702V8.57373H46.6571V22.5015ZM21.0468 14.1255C20.198 14.1256 19.4684 14.4367 18.8583 15.0601C18.2614 15.6702 17.9628 16.3934 17.9628 17.229C17.9628 18.0647 18.2686 18.7878 18.8788 19.3979C19.4756 20.0079 20.1981 20.3129 21.0468 20.313C21.8824 20.313 22.5992 20.0081 23.1962 19.3979C23.8064 18.7878 24.1112 18.0647 24.1112 17.229C24.1112 16.3933 23.8063 15.6702 23.1962 15.0601C22.5993 14.4367 21.8824 14.1255 21.0468 14.1255ZM53.5087 14.1255C52.6465 14.1255 51.9171 14.4304 51.3202 15.0405C50.7366 15.6507 50.4442 16.3801 50.4442 17.229C50.4442 18.078 50.7365 18.8073 51.3202 19.4175C51.9171 20.0144 52.6464 20.313 53.5087 20.313C54.3442 20.313 55.0602 20.008 55.6571 19.3979C56.2673 18.7878 56.5731 18.0647 56.5731 17.229C56.5731 16.3933 56.2673 15.6702 55.6571 15.0601C55.0603 14.4368 54.3442 14.1255 53.5087 14.1255ZM41.0038 7.77783C41.4548 7.77784 41.8397 7.93076 42.1581 8.23584C42.4762 8.54087 42.6356 8.91253 42.6356 9.3501C42.6355 9.78753 42.4762 10.1522 42.1581 10.4438C41.8397 10.7489 41.4548 10.9018 41.0038 10.9019C40.5528 10.9019 40.1678 10.7561 39.8495 10.4644C39.5312 10.1594 39.3721 9.78765 39.3719 9.3501C39.3719 8.91251 39.5313 8.54087 39.8495 8.23584C40.1678 7.93075 40.5528 7.77783 41.0038 7.77783Z" fill="url(#paint0_linear_2040_95)"/>
<defs>
<linearGradient id="paint0_linear_2040_95" x1="61.9867" y1="15.2295" x2="-47.1835" y2="3.41832" gradientUnits="userSpaceOnUse">
<stop stop-color="#DDD24C"/>
<stop offset="0.25" stop-color="#EE704A"/>
<stop offset="0.5" stop-color="#F53A8B"/>
<stop offset="0.75" stop-color="#7B40E4"/>
<stop offset="1" stop-color="#3D9BFC"/>
</linearGradient>
</defs>
</svg>
