<svg width="142" height="41" viewBox="0 0 142 41" fill="none" xmlns="http://www.w3.org/2000/svg">
<rect width="141.173" height="40.531" fill="white"/>
<path d="M60.4041 14.5762C61.6973 14.5895 62.7571 15.0361 63.5837 15.916V14.7559H66.1843V24.6758C66.1843 26.2623 65.6841 27.5423 64.6843 28.5156C63.6844 29.4889 62.431 29.9755 60.9246 29.9756C59.6712 29.9756 58.5509 29.6289 57.5642 28.9355C56.5909 28.2422 55.9438 27.2288 55.6238 25.8955H58.2244C58.6377 26.9888 59.5245 27.5361 60.8845 27.5361C61.6976 27.536 62.3441 27.2953 62.824 26.8154C63.3172 26.3354 63.5704 25.6357 63.5837 24.7158V23.9961C62.7838 24.8226 61.7239 25.2363 60.4041 25.2363C58.8841 25.2363 57.6238 24.7229 56.6238 23.6963C55.6371 22.6696 55.1443 21.4022 55.1443 19.8955C55.1444 18.3624 55.6444 17.0956 56.6443 16.0957C57.6442 15.0825 58.8574 14.5762 60.2839 14.5762H60.4041ZM40.283 14.7559H43.4431V16.9961H40.283V21.8555C40.283 22.402 40.4632 22.7426 40.823 22.876C41.183 23.0093 41.4968 23.0762 41.7634 23.0762C42.2434 23.0762 42.8371 22.9692 43.5437 22.7559V25.2764C42.8105 25.4763 42.1302 25.5761 41.5037 25.5762C40.7038 25.5762 39.8702 25.3425 39.0037 24.876C38.137 24.4093 37.7029 23.4093 37.7029 21.876V16.9961H35.8035V14.7559H37.7029V12.3154L40.283 11.5762V14.7559ZM90.3455 14.7559H93.5056V16.9961H90.3455V21.8555C90.3455 22.402 90.5257 22.7426 90.8855 22.876C91.2455 23.0093 91.5593 23.0762 91.8259 23.0762C92.3059 23.0762 92.8996 22.9692 93.6062 22.7559V25.2764C92.873 25.4763 92.1927 25.5761 91.5662 25.5762C90.7663 25.5762 89.9327 25.3425 89.0662 24.876C88.1995 24.4093 87.7654 23.4093 87.7654 21.876V16.9961H85.866V14.7559H87.7654V12.3154L90.3455 11.5762V14.7559ZM49.2361 14.5762C50.5426 14.5762 51.6961 15.0023 52.696 15.8555C53.7093 16.6954 54.3359 17.7491 54.5759 19.0156C54.6559 19.3889 54.696 19.7491 54.696 20.0957C54.696 20.4156 54.6631 20.7224 54.5964 21.0156H46.3562C46.5029 21.7089 46.8362 22.2491 47.3562 22.6357C47.8762 23.0224 48.5028 23.2158 49.2361 23.2158C50.3426 23.2158 51.2492 22.8493 51.9558 22.1162L54.2361 22.7363C53.8228 23.5761 53.1362 24.2493 52.1765 24.7559C51.2298 25.2625 50.2494 25.5156 49.2361 25.5156C47.7161 25.5156 46.4228 24.9826 45.3562 23.916C44.3029 22.836 43.7761 21.549 43.7761 20.0557C43.7762 18.5226 44.3094 17.2228 45.3757 16.1562C46.4424 15.1029 47.7294 14.5762 49.2361 14.5762ZM79.2146 14.5762C80.4811 14.5763 81.541 15.0228 82.3943 15.916V14.7559H84.9939V25.3555H82.3943V24.2158C81.5544 25.0824 80.4944 25.5155 79.2146 25.5156C77.7746 25.5156 76.5339 24.9755 75.4939 23.8955C74.4675 22.8156 73.9539 21.5355 73.9539 20.0557C73.9539 18.5226 74.4675 17.2228 75.4939 16.1562C76.5206 15.1029 77.7613 14.5762 79.2146 14.5762ZM103.731 14.5762C105.238 14.5762 106.525 15.1163 107.592 16.1963C108.658 17.2629 109.191 18.5429 109.191 20.0361C109.191 21.5427 108.658 22.8361 107.592 23.916C106.525 24.9826 105.238 25.5156 103.731 25.5156C102.238 25.5155 100.958 24.9754 99.8914 23.8955C98.825 22.8156 98.2918 21.5292 98.2917 20.0361C98.2917 18.5295 98.8247 17.2424 99.8914 16.1758C100.958 15.1092 102.238 14.5763 103.731 14.5762ZM23.8113 25.3555H21.1111V11.3555H23.8113V25.3555ZM31.0642 14.5762C32.2775 14.5762 33.3177 14.963 34.1843 15.7363C35.0508 16.5096 35.484 17.5357 35.4841 18.8154V25.3555H32.8845V19.4961C32.8845 18.7496 32.6579 18.1496 32.2048 17.6963C31.7515 17.2297 31.198 16.9961 30.5447 16.9961C29.7713 16.9961 29.1376 17.2759 28.6443 17.8359C28.1644 18.3825 27.9246 19.0691 27.9246 19.8955V25.3555H25.325V14.7559H27.9246V15.9561C28.7245 15.0361 29.771 14.5763 31.0642 14.5762ZM73.0974 14.6357C73.3773 14.6357 73.6707 14.6625 73.9773 14.7158V17.4961C73.564 17.3628 73.1637 17.2959 72.7771 17.2959C72.2305 17.296 71.6305 17.4894 70.9773 17.876C70.3374 18.2493 70.0173 18.9428 70.0173 19.9561V25.3555H67.4177V14.7559H70.0173V16.3359C70.364 15.7359 70.8177 15.3028 71.3777 15.0361C71.9376 14.7695 72.5108 14.6358 73.0974 14.6357ZM97.2693 25.3555H94.6697V14.7559H97.2693V25.3555ZM115.642 14.5762C116.855 14.5763 117.895 14.9631 118.761 15.7363C119.628 16.5096 120.062 17.5357 120.062 18.8154V25.3555H117.462V19.4961C117.462 18.7496 117.235 18.1496 116.782 17.6963C116.329 17.2296 115.775 16.9961 115.122 16.9961C114.349 16.9961 113.715 17.2759 113.221 17.8359C112.742 18.3825 112.502 19.0691 112.502 19.8955V25.3555H109.902V14.7559H112.502V15.9561C113.302 15.0361 114.349 14.5762 115.642 14.5762ZM79.4744 16.9355C78.6078 16.9355 77.8741 17.2423 77.2742 17.8555C76.6876 18.4687 76.3943 19.2024 76.3943 20.0557C76.3943 20.909 76.6875 21.6425 77.2742 22.2559C77.8742 22.8559 78.6077 23.1562 79.4744 23.1562C80.3143 23.1562 81.0346 22.8496 81.6345 22.2363C82.2479 21.623 82.5544 20.8957 82.5544 20.0557C82.5544 19.2159 82.2477 18.4892 81.6345 17.876C81.0346 17.2493 80.3143 16.9356 79.4744 16.9355ZM103.731 16.9561C102.891 16.9561 102.178 17.2627 101.592 17.876C101.005 18.476 100.712 19.1962 100.712 20.0361C100.712 20.8894 101.005 21.623 101.592 22.2363C102.178 22.8361 102.891 23.1357 103.731 23.1357C104.584 23.1357 105.305 22.8361 105.891 22.2363C106.478 21.623 106.771 20.8894 106.771 20.0361C106.771 19.1828 106.478 18.4555 105.891 17.8555C105.305 17.2557 104.584 16.9561 103.731 16.9561ZM60.6638 16.8955C59.8106 16.8956 59.0841 17.1898 58.4841 17.7764C57.8844 18.3629 57.5838 19.0691 57.5837 19.8955C57.5837 20.7355 57.8904 21.4495 58.5037 22.0361C59.1036 22.6227 59.8239 22.916 60.6638 22.916C61.5037 22.916 62.224 22.6227 62.824 22.0361C63.4373 21.4495 63.7439 20.7355 63.7439 19.8955C63.7438 19.0692 63.4441 18.3629 62.8445 17.7764C62.2445 17.1897 61.5172 16.8955 60.6638 16.8955ZM49.2166 16.876C48.4832 16.876 47.8557 17.0828 47.3357 17.4961C46.8292 17.9094 46.5028 18.4229 46.3562 19.0361H52.0564C51.9097 18.4228 51.5826 17.9094 51.0759 17.4961C50.5694 17.0829 49.9497 16.8761 49.2166 16.876ZM95.989 10.5557C96.4423 10.5557 96.8292 10.7091 97.1492 11.0156C97.4691 11.3223 97.6296 11.6958 97.6296 12.1357C97.6296 12.5757 97.4692 12.943 97.1492 13.2363C96.8292 13.5428 96.4422 13.6963 95.989 13.6963C95.5358 13.6962 95.1488 13.5491 94.8289 13.2559C94.509 12.9492 94.3494 12.5756 94.3494 12.1357C94.3494 11.6958 94.5089 11.3222 94.8289 11.0156C95.1488 10.709 95.5358 10.5557 95.989 10.5557Z" fill="url(#paint0_linear_2040_112)"/>
<defs>
<linearGradient id="paint0_linear_2040_112" x1="126.865" y1="20.2656" x2="-122.975" y2="26.1129" gradientUnits="userSpaceOnUse">
<stop stop-color="#DDD24C"/>
<stop offset="0.25" stop-color="#EE704A"/>
<stop offset="0.5" stop-color="#F53A8B"/>
<stop offset="0.75" stop-color="#7B40E4"/>
<stop offset="1" stop-color="#3D9BFC"/>
</linearGradient>
</defs>
</svg>
