<svg width="136" height="38" viewBox="0 0 136 38" fill="none" xmlns="http://www.w3.org/2000/svg">
<rect width="134.683" height="38" transform="translate(0.557129)" fill="white"/>
<path d="M104.792 17.0936V14.3914H107.084V11.4479L110.197 10.5552V14.3914H114.009V17.0936H110.197V22.9564C110.197 23.6159 110.414 24.0261 110.848 24.1869C111.282 24.3478 111.66 24.4282 111.982 24.4282C112.561 24.4282 113.277 24.2995 114.129 24.0422V27.0822C113.245 27.3234 112.424 27.4441 111.668 27.4441C110.703 27.4441 109.698 27.1626 108.653 26.5996C107.607 26.0367 107.084 24.8303 107.084 22.9806V17.0936H104.792Z" fill="url(#paint0_linear_2040_103)"/>
<path d="M93.5669 16.0803C94.8537 14.8097 96.4059 14.1743 98.2234 14.1743C99.5746 14.1743 100.797 14.5603 101.891 15.3324C102.985 16.0884 103.773 17.0937 104.255 18.3483L101.384 19.1445C101.095 18.5011 100.668 17.9864 100.105 17.6003C99.5585 17.1982 98.9312 16.9972 98.2234 16.9972C97.2101 16.9972 96.3496 17.3752 95.6419 18.1311C94.9341 18.871 94.5803 19.7557 94.5803 20.7851C94.5803 21.8145 94.9341 22.6992 95.6419 23.4391C96.3496 24.179 97.2101 24.5489 98.2234 24.5489C98.9473 24.5489 99.5826 24.3559 100.129 23.9699C100.692 23.5678 101.111 23.045 101.384 22.4016L104.255 23.2219C103.773 24.4605 102.985 25.4657 101.891 26.2378C100.813 26.9938 99.5906 27.3718 98.2234 27.3718C96.3898 27.3718 94.8296 26.7284 93.5428 25.4416C92.2721 24.1388 91.6368 22.5866 91.6368 20.7851C91.6368 18.9354 92.2802 17.3671 93.5669 16.0803Z" fill="url(#paint1_linear_2040_103)"/>
<path d="M79.3705 16.0803C80.6573 14.8097 82.2095 14.1743 84.027 14.1743C85.6033 14.1743 86.9947 14.689 88.201 15.7184C89.4234 16.7318 90.1794 18.0025 90.4689 19.5305C90.5655 19.9809 90.6137 20.4152 90.6137 20.8334C90.6137 21.2194 90.5735 21.5893 90.4931 21.9432H80.5528C80.7297 22.7796 81.1318 23.431 81.7591 23.8975C82.3864 24.3639 83.1424 24.5972 84.027 24.5972C85.3621 24.5972 86.4558 24.1548 87.3083 23.2702L90.0588 24.0181C89.5602 25.0315 88.7318 25.8437 87.5737 26.455C86.4317 27.0662 85.2495 27.3718 84.027 27.3718C82.1934 27.3718 80.6332 26.7284 79.3464 25.4416C78.0757 24.1388 77.4404 22.5866 77.4404 20.7851C77.4404 18.9354 78.0838 17.3671 79.3705 16.0803ZM80.5528 19.5546H87.4289C87.252 18.8147 86.8579 18.1955 86.2467 17.6969C85.6355 17.1982 84.8876 16.9489 84.0029 16.9489C83.1183 16.9489 82.3623 17.1982 81.735 17.6969C81.1238 18.1955 80.7297 18.8147 80.5528 19.5546Z" fill="url(#paint2_linear_2040_103)"/>
<path d="M63.7944 14.3915H66.9309V15.8391C67.896 14.7292 69.1587 14.1743 70.7189 14.1743C72.1826 14.1743 73.4372 14.6408 74.4827 15.5737C75.5282 16.5066 76.0509 17.7451 76.0509 19.2892V27.1788H72.9144V20.1096C72.9144 19.2088 72.641 18.485 72.0941 17.9381C71.5472 17.3752 70.8797 17.0937 70.0916 17.0937C69.1587 17.0937 68.3946 17.4315 67.7995 18.107C67.2205 18.7665 66.9309 19.5948 66.9309 20.5921V27.1788H63.7944V14.3915Z" fill="url(#paint3_linear_2040_103)"/>
<path d="M49.6686 14.3915H52.8051V15.8391C53.7702 14.7292 55.0329 14.1743 56.5931 14.1743C58.0568 14.1743 59.3114 14.6408 60.3569 15.5737C61.4024 16.5066 61.9252 17.7451 61.9252 19.2892V27.1788H58.7886V20.1096C58.7886 19.2088 58.5152 18.485 57.9683 17.9381C57.4214 17.3752 56.7539 17.0937 55.9658 17.0937C55.0329 17.0937 54.2689 17.4315 53.6737 18.107C53.0947 18.7665 52.8051 19.5948 52.8051 20.5921V27.1788H49.6686V14.3915Z" fill="url(#paint4_linear_2040_103)"/>
<path d="M37.1103 16.1045C38.397 14.8177 39.9412 14.1743 41.7427 14.1743C43.5602 14.1743 45.1124 14.8257 46.3992 16.1286C47.6859 17.4154 48.3293 18.9595 48.3293 20.761C48.3293 22.5786 47.6859 24.1388 46.3992 25.4416C45.1124 26.7284 43.5602 27.3718 41.7427 27.3718C39.9412 27.3718 38.397 26.7203 37.1103 25.4175C35.8235 24.1146 35.1801 22.5625 35.1801 20.761C35.1801 18.9434 35.8235 17.3912 37.1103 16.1045ZM38.0995 20.761C38.0995 21.7904 38.4533 22.6751 39.1611 23.415C39.8688 24.1388 40.7293 24.5007 41.7427 24.5007C42.7721 24.5007 43.6406 24.1388 44.3484 23.415C45.0561 22.6751 45.41 21.7904 45.41 20.761C45.41 19.7316 45.0561 18.855 44.3484 18.1311C43.6406 17.4073 42.7721 17.0454 41.7427 17.0454C40.7293 17.0454 39.8688 17.4154 39.1611 18.1553C38.4533 18.8791 38.0995 19.7477 38.0995 20.761Z" fill="url(#paint5_linear_2040_103)"/>
<path d="M23.5985 16.0803C24.8853 14.8097 26.4374 14.1743 28.255 14.1743C29.6061 14.1743 30.8285 14.5603 31.9223 15.3324C33.0161 16.0884 33.8042 17.0937 34.2867 18.3483L31.4156 19.1445C31.1261 18.5011 30.6999 17.9864 30.1369 17.6003C29.59 17.1982 28.9627 16.9972 28.255 16.9972C27.2417 16.9972 26.3811 17.3752 25.6734 18.1311C24.9657 18.871 24.6118 19.7557 24.6118 20.7851C24.6118 21.8145 24.9657 22.6992 25.6734 23.4391C26.3811 24.179 27.2417 24.5489 28.255 24.5489C28.9788 24.5489 29.6142 24.3559 30.161 23.9699C30.724 23.5678 31.1422 23.045 31.4156 22.4016L34.2867 23.2219C33.8042 24.4605 33.0161 25.4657 31.9223 26.2378C30.8446 26.9938 29.6222 27.3718 28.255 27.3718C26.4214 27.3718 24.8611 26.7284 23.5744 25.4416C22.3037 24.1388 21.6683 22.5866 21.6683 20.7851C21.6683 18.9354 22.3117 17.3671 23.5985 16.0803Z" fill="url(#paint6_linear_2040_103)"/>
<defs>
<linearGradient id="paint0_linear_2040_103" x1="122.331" y1="21.0715" x2="-119.406" y2="30.2059" gradientUnits="userSpaceOnUse">
<stop stop-color="#DDD24C"/>
<stop offset="0.25" stop-color="#EE704A"/>
<stop offset="0.5" stop-color="#F53A8B"/>
<stop offset="0.75" stop-color="#7B40E4"/>
<stop offset="1" stop-color="#3D9BFC"/>
</linearGradient>
<linearGradient id="paint1_linear_2040_103" x1="122.331" y1="21.0716" x2="-119.406" y2="30.206" gradientUnits="userSpaceOnUse">
<stop stop-color="#DDD24C"/>
<stop offset="0.25" stop-color="#EE704A"/>
<stop offset="0.5" stop-color="#F53A8B"/>
<stop offset="0.75" stop-color="#7B40E4"/>
<stop offset="1" stop-color="#3D9BFC"/>
</linearGradient>
<linearGradient id="paint2_linear_2040_103" x1="122.331" y1="21.0716" x2="-119.406" y2="30.206" gradientUnits="userSpaceOnUse">
<stop stop-color="#DDD24C"/>
<stop offset="0.25" stop-color="#EE704A"/>
<stop offset="0.5" stop-color="#F53A8B"/>
<stop offset="0.75" stop-color="#7B40E4"/>
<stop offset="1" stop-color="#3D9BFC"/>
</linearGradient>
<linearGradient id="paint3_linear_2040_103" x1="122.331" y1="21.0716" x2="-119.406" y2="30.206" gradientUnits="userSpaceOnUse">
<stop stop-color="#DDD24C"/>
<stop offset="0.25" stop-color="#EE704A"/>
<stop offset="0.5" stop-color="#F53A8B"/>
<stop offset="0.75" stop-color="#7B40E4"/>
<stop offset="1" stop-color="#3D9BFC"/>
</linearGradient>
<linearGradient id="paint4_linear_2040_103" x1="122.331" y1="21.0716" x2="-119.407" y2="30.206" gradientUnits="userSpaceOnUse">
<stop stop-color="#DDD24C"/>
<stop offset="0.25" stop-color="#EE704A"/>
<stop offset="0.5" stop-color="#F53A8B"/>
<stop offset="0.75" stop-color="#7B40E4"/>
<stop offset="1" stop-color="#3D9BFC"/>
</linearGradient>
<linearGradient id="paint5_linear_2040_103" x1="122.331" y1="21.0716" x2="-119.406" y2="30.206" gradientUnits="userSpaceOnUse">
<stop stop-color="#DDD24C"/>
<stop offset="0.25" stop-color="#EE704A"/>
<stop offset="0.5" stop-color="#F53A8B"/>
<stop offset="0.75" stop-color="#7B40E4"/>
<stop offset="1" stop-color="#3D9BFC"/>
</linearGradient>
<linearGradient id="paint6_linear_2040_103" x1="122.331" y1="21.0716" x2="-119.406" y2="30.206" gradientUnits="userSpaceOnUse">
<stop stop-color="#DDD24C"/>
<stop offset="0.25" stop-color="#EE704A"/>
<stop offset="0.5" stop-color="#F53A8B"/>
<stop offset="0.75" stop-color="#7B40E4"/>
<stop offset="1" stop-color="#3D9BFC"/>
</linearGradient>
</defs>
</svg>
