<svg width="153" height="42" viewBox="0 0 153 42" fill="none" xmlns="http://www.w3.org/2000/svg">
<rect width="152.111" height="41.3055" fill="white"/>
<path d="M87.1599 14.1504C88.7577 14.1504 90.1262 14.7499 91.2654 15.9482C92.4192 17.1465 92.9958 18.5669 92.9958 20.209C92.9958 21.9101 92.4268 23.345 91.2878 24.5137C90.1487 25.6824 88.7725 26.2666 87.1599 26.2666C85.725 26.2666 84.5488 25.7714 83.6316 24.7803V30.75H80.7468V14.3281H83.6316V15.5928C84.5488 14.6312 85.7249 14.1504 87.1599 14.1504ZM44.1423 14.1279C45.8141 14.1279 47.242 14.7274 48.4255 15.9258C49.6091 17.1093 50.2009 18.5296 50.2009 20.1865C50.2009 21.8582 49.609 23.2929 48.4255 24.4912C47.242 25.6748 45.8141 26.2666 44.1423 26.2666C42.4855 26.2665 41.0651 25.668 39.8816 24.4697C38.6981 23.2714 38.1062 21.8434 38.1062 20.1865C38.1062 18.5148 38.6981 17.0868 39.8816 15.9033C41.0651 14.7199 42.4855 14.128 44.1423 14.1279ZM75.0232 14.1279C76.7243 14.128 78.233 14.513 79.5496 15.2822V18.0117C77.7449 17.0651 76.2362 16.5919 75.0232 16.5918C74.4463 16.5918 73.9875 16.6953 73.6472 16.9023C73.3069 17.1095 73.1365 17.3757 73.1365 17.7012C73.1365 17.8785 73.1806 18.0339 73.2693 18.167C73.3728 18.2853 73.5433 18.3888 73.78 18.4775C74.0315 18.5663 74.2537 18.64 74.446 18.6992C74.6383 18.7436 74.9413 18.8107 75.3552 18.8994C75.7841 18.9881 76.1099 19.0619 76.3318 19.1211C77.6484 19.4613 78.6033 19.9345 79.1951 20.541C79.8016 21.1328 80.1042 21.8655 80.1042 22.7383C80.1042 23.9514 79.6235 24.8469 78.6619 25.4238C77.7151 25.9859 76.5906 26.2666 75.2888 26.2666C73.6468 26.2666 72.0491 25.7934 70.4958 24.8467V21.9395C71.0284 22.3685 71.7534 22.7832 72.6707 23.1826C73.6025 23.5672 74.4753 23.7588 75.2888 23.7588C75.7918 23.7588 76.2285 23.6707 76.5984 23.4932C76.9681 23.3009 77.153 23.0345 77.1531 22.6943C77.1531 22.3393 76.9241 22.05 76.4656 21.8281C76.0218 21.6062 75.2967 21.3917 74.2908 21.1846C72.8707 20.8887 71.8276 20.4749 71.1619 19.9424C70.4962 19.4099 70.163 18.6702 70.1628 17.7236C70.1628 16.5993 70.6139 15.7182 71.5164 15.082C72.4188 14.4459 73.5882 14.1279 75.0232 14.1279ZM99.3191 14.1279C100.724 14.128 101.901 14.6241 102.847 15.6152V14.3281H105.732V26.0889H102.847V24.8242C101.915 25.7857 100.739 26.2665 99.3191 26.2666C97.7214 26.2666 96.3451 25.6679 95.1912 24.4697C94.0521 23.2715 93.4823 21.851 93.4822 20.209C93.4822 18.5076 94.052 17.0644 95.1912 15.8809C96.3303 14.7123 97.7066 14.1279 99.3191 14.1279ZM112.913 14.1279C114.155 14.128 115.28 14.4833 116.286 15.1934C117.292 15.8886 118.017 16.813 118.461 17.9668L115.82 18.6992C115.554 18.1075 115.161 17.6343 114.643 17.2793C114.14 16.9096 113.564 16.7247 112.913 16.7246C111.981 16.7246 111.189 17.0722 110.538 17.7676C109.887 18.4481 109.561 19.2622 109.561 20.209C109.561 21.1555 109.887 21.969 110.538 22.6494C111.189 23.33 111.981 23.6709 112.913 23.6709C113.578 23.6709 114.163 23.4927 114.666 23.1377C115.184 22.7678 115.569 22.287 115.82 21.6953L118.461 22.4502C118.017 23.5892 117.292 24.5136 116.286 25.2236C115.295 25.9189 114.17 26.2666 112.913 26.2666C111.226 26.2666 109.791 25.6748 108.607 24.4912C107.439 23.293 106.854 21.8656 106.854 20.209C106.854 18.5076 107.446 17.0644 108.63 15.8809C109.813 14.7122 111.241 14.1279 112.913 14.1279ZM124.941 14.1279C126.391 14.1279 127.67 14.602 128.78 15.5488C129.904 16.4809 130.6 17.6492 130.866 19.0547C130.955 19.4689 131 19.8683 131 20.2529C131 20.6079 130.962 20.9481 130.888 21.2734H121.746C121.909 22.0427 122.278 22.6423 122.855 23.0713C123.432 23.5003 124.128 23.7148 124.941 23.7148C126.169 23.7148 127.176 23.3078 127.96 22.4941L130.489 23.1826C130.03 24.1144 129.269 24.8617 128.204 25.4238C127.153 25.986 126.066 26.2666 124.941 26.2666C123.255 26.2666 121.82 25.6747 120.636 24.4912C119.468 23.293 118.883 21.8658 118.883 20.209C118.883 18.5076 119.474 17.0644 120.658 15.8809C121.841 14.7121 123.269 14.128 124.941 14.1279ZM25.8816 23.3154L27.946 14.3281H31.5632L33.6267 23.3379L35.491 14.3281H38.3982L35.5798 26.0898H31.741L29.7654 16.8359L27.7683 26.0898H23.907L21.1111 14.3281H23.9958L25.8816 23.3154ZM57.2917 14.1943C57.6023 14.1944 57.9281 14.224 58.2683 14.2832V17.3682C57.8097 17.2202 57.3653 17.1465 56.9363 17.1465C56.3297 17.1465 55.6641 17.361 54.9392 17.79C54.2292 18.2043 53.8738 18.9734 53.8738 20.0977V26.0898H50.989V14.3281H53.8738V16.0811C54.2584 15.4155 54.7614 14.9346 55.3826 14.6387C56.0039 14.3428 56.6408 14.1943 57.2917 14.1943ZM62.156 19.5654L66.9714 14.3281H70.4109L65.3738 19.6982L70.5447 26.0898H67.1716L63.6648 21.5625L62.156 23.2051V26.0898H59.2712V10.5557H62.156V19.5654ZM86.8718 16.7471C85.9398 16.7471 85.1334 17.0947 84.4529 17.79C83.7871 18.4706 83.4539 19.2769 83.4539 20.209C83.4539 21.1409 83.7872 21.9542 84.4529 22.6494C85.1334 23.3299 85.9398 23.6709 86.8718 23.6709C87.8333 23.6708 88.6399 23.3299 89.2908 22.6494C89.9562 21.969 90.2887 21.1555 90.2888 20.209C90.2888 19.2623 89.9564 18.4481 89.2908 17.7676C88.6399 17.0871 87.8333 16.7472 86.8718 16.7471ZM99.6072 16.7471C98.6455 16.7471 97.8315 17.087 97.1658 17.7676C96.5149 18.4481 96.1892 19.2622 96.1892 20.209C96.1893 21.1555 96.5151 21.969 97.1658 22.6494C97.8315 23.3152 98.6455 23.6484 99.6072 23.6484C100.539 23.6484 101.338 23.3082 102.004 22.6279C102.684 21.9475 103.024 21.1409 103.024 20.209C103.024 19.277 102.684 18.4706 102.004 17.79C101.338 17.0947 100.539 16.7471 99.6072 16.7471ZM44.1423 16.7686C43.2104 16.7686 42.4192 17.1096 41.7683 17.79C41.1174 18.4558 40.7917 19.2545 40.7917 20.1865C40.7918 21.1333 41.1174 21.9474 41.7683 22.6279C42.4191 23.2934 43.2106 23.6259 44.1423 23.626C45.0892 23.626 45.8888 23.2937 46.5398 22.6279C47.1907 21.9474 47.5154 21.1333 47.5154 20.1865C47.5154 19.2398 47.1906 18.4333 46.5398 17.7676C45.8888 17.1018 45.0892 16.7686 44.1423 16.7686ZM124.919 16.6797C124.105 16.6798 123.41 16.9096 122.833 17.3682C122.271 17.8268 121.909 18.3967 121.746 19.0771H128.07C127.907 18.3967 127.545 17.8268 126.983 17.3682C126.421 16.9095 125.732 16.6797 124.919 16.6797Z" fill="url(#paint0_linear_2040_84)"/>
<defs>
<linearGradient id="paint0_linear_2040_84" x1="138.555" y1="20.6528" x2="-223.169" y2="28.8018" gradientUnits="userSpaceOnUse">
<stop stop-color="#DDD24C"/>
<stop offset="0.25" stop-color="#EE704A"/>
<stop offset="0.5" stop-color="#F53A8B"/>
<stop offset="0.75" stop-color="#7B40E4"/>
<stop offset="1" stop-color="#3D9BFC"/>
</linearGradient>
</defs>
</svg>
